<?xml version="1.0" standalone="no"?>
<!DOCTYPE svg PUBLIC "-//W3C//DTD SVG 20010904//EN"
 "http://www.w3.org/TR/2001/REC-SVG-20010904/DTD/svg10.dtd">
<svg version="1.0" xmlns="http://www.w3.org/2000/svg"
 width="184.000000pt" height="274.000000pt" viewBox="0 0 184.000000 274.000000"
 preserveAspectRatio="xMidYMid meet">

<g transform="translate(0.000000,274.000000) scale(0.100000,-0.100000)"
fill="#000000" stroke="none">
<path d="M242 2723 c-19 -37 -84 -266 -107 -380 -14 -65 -28 -166 -31 -225
l-7 -108 187 0 187 0 -6 63 c-13 132 -27 225 -45 311 -23 106 -89 326 -103
344 -14 18 -65 15 -75 -5z"/>
<path d="M886 2538 c-22 -34 -102 -319 -120 -428 -9 -52 -19 -139 -22 -192
l-7 -98 181 0 c99 0 183 4 186 9 8 12 -11 209 -30 309 -17 97 -101 391 -116
410 -17 20 -56 14 -72 -10z"/>
<path d="M1537 2368 c-19 -15 -89 -240 -117 -378 -19 -95 -40 -262 -40 -320
l0 -30 186 0 186 0 -7 83 c-13 165 -37 290 -86 459 -47 161 -64 198 -94 198
-6 0 -19 -6 -28 -12z"/>
<path d="M100 1815 c0 -103 -1 -107 -40 -185 l-40 -80 260 0 c143 0 260 2 260
5 0 3 -16 37 -35 75 -34 67 -35 74 -35 180 l0 110 -185 0 -185 0 0 -105z"/>
<path d="M740 1635 c0 -101 -1 -107 -39 -185 l-39 -80 259 0 c142 0 259 2 259
5 0 3 -16 37 -35 75 -34 67 -35 74 -35 180 l0 110 -185 0 -185 0 0 -105z"/>
<path d="M1380 1450 c0 -106 -1 -113 -35 -180 -19 -38 -35 -74 -35 -80 0 -6
88 -10 255 -10 197 0 255 3 255 13 0 6 -15 37 -32 67 -29 51 -32 64 -37 175
l-6 120 -182 3 -183 2 0 -110z"/>
<path d="M2 958 l3 -503 158 -3 c131 -2 157 0 157 12 0 36 -12 46 -55 46 -45
0 -55 10 -55 56 0 20 6 25 40 30 47 8 55 17 63 67 5 35 3 39 -34 63 -36 22
-38 27 -28 47 23 44 28 46 64 31 46 -19 46 -19 78 21 l28 35 -21 39 -20 40 26
20 c35 27 38 27 68 -11 22 -29 28 -31 53 -22 l28 9 3 263 2 262 -280 0 -280 0
2 -502z"/>
<path d="M650 1164 c0 -89 3 -119 15 -130 8 -9 15 -28 15 -44 0 -34 2 -36 60
-45 44 -6 45 -6 64 29 22 41 26 42 66 21 l28 -15 -15 -40 -16 -41 35 -35 35
-36 34 21 c45 27 51 27 72 -9 l18 -30 -34 -30 -35 -30 16 -45 c16 -43 18 -44
62 -47 44 -3 45 -4 48 -40 3 -36 3 -37 -41 -43 -43 -7 -44 -8 -55 -53 -7 -31
-7 -50 -1 -57 6 -5 48 -12 94 -14 l85 -3 0 50 c0 28 -5 52 -11 54 -7 2 -7 12
0 31 16 41 14 65 -9 97 -18 26 -23 27 -57 19 -56 -13 -60 -12 -72 23 -6 17
-10 32 -9 33 2 2 22 12 46 24 39 20 42 24 42 61 0 35 -4 42 -40 65 -22 14 -40
28 -40 31 0 3 7 18 15 34 l15 29 45 -16 c72 -24 75 -17 75 153 l0 144 -275 0
-275 0 0 -116z"/>
<path d="M1310 1091 c0 -5 3 -16 6 -25 9 -23 83 -22 100 2 22 28 17 32 -46 32
-33 0 -60 -4 -60 -9z"/>
<path d="M1506 1054 c-15 -45 -15 -47 7 -75 24 -31 36 -34 84 -20 36 10 47 2
58 -39 5 -23 1 -28 -39 -48 -43 -20 -46 -25 -46 -60 0 -33 5 -40 40 -62 31
-19 39 -29 34 -45 -12 -39 -29 -49 -65 -36 -43 15 -50 14 -82 -13 -26 -21 -27
-25 -18 -67 9 -37 8 -46 -6 -56 -30 -23 -52 -15 -72 26 -18 34 -25 39 -61 43
-23 2 -43 2 -46 -1 -2 -2 -4 -37 -4 -78 l0 -73 275 0 275 0 0 325 0 325 -159
0 -159 0 -16 -46z"/>
<path d="M1303 923 c-9 -3 -13 -32 -13 -93 0 -78 2 -91 19 -100 75 -39 168 44
141 126 -15 45 -54 74 -99 73 -20 0 -42 -3 -48 -6z"/>
<path d="M650 610 l0 -160 69 0 c77 0 93 9 117 67 26 61 11 147 -34 196 -25
28 -87 57 -122 57 l-30 0 0 -160z"/>
<path d="M516 693 c-31 -48 -42 -110 -27 -156 13 -39 47 -87 62 -87 5 0 9 61
9 140 0 85 -4 140 -10 140 -5 0 -21 -17 -34 -37z"/>
<path d="M20 354 c0 -8 5 -34 11 -58 9 -37 8 -48 -10 -82 -37 -69 -22 -161 31
-198 19 -13 58 -16 228 -16 225 0 235 2 265 60 17 33 20 118 4 140 -7 10 -12
11 -15 4 -3 -6 -11 -19 -18 -29 -12 -16 -14 -16 -44 -1 -36 19 -37 24 -18 70
14 34 14 34 -24 65 l-39 31 -37 -22 -37 -22 -23 30 c-13 16 -24 32 -24 37 0 4
-56 7 -125 7 -106 0 -125 -2 -125 -16z"/>
<path d="M933 338 l-25 -27 21 -34 c27 -45 27 -49 -9 -70 l-30 -18 -30 34 -30
35 -45 -16 c-43 -16 -44 -18 -47 -62 -3 -44 -4 -45 -40 -48 -31 -3 -37 0 -41
20 -2 13 -5 -3 -6 -34 -1 -51 2 -60 30 -87 l31 -31 210 0 210 0 34 34 c32 32
34 38 34 99 0 49 -5 70 -20 89 -18 23 -18 29 -5 78 8 29 12 57 9 61 -3 5 -54
7 -115 6 -105 -2 -111 -3 -136 -29z"/>
<path d="M1304 338 c18 -83 18 -97 2 -119 -19 -28 -22 -126 -4 -164 22 -50 49
-55 269 -55 l201 0 34 34 c32 32 34 38 34 99 0 49 -5 70 -20 89 -18 23 -18 29
-5 78 8 29 12 57 9 62 -3 4 -122 8 -266 8 l-260 0 6 -32z"/>
</g>
</svg>
