<?xml version="1.0" standalone="no"?>
<!DOCTYPE svg PUBLIC "-//W3C//DTD SVG 20010904//EN"
 "http://www.w3.org/TR/2001/REC-SVG-20010904/DTD/svg10.dtd">
<svg version="1.0" xmlns="http://www.w3.org/2000/svg"
 width="250.000000pt" height="150.000000pt" viewBox="0 0 250.000000 150.000000"
 preserveAspectRatio="xMidYMid meet">

<g transform="translate(0.000000,150.000000) scale(0.100000,-0.100000)"
fill="#000000" stroke="none">
<path d="M337 1493 c-3 -4 -6 -46 -8 -93 -4 -80 -5 -85 -28 -90 -13 -3 -33
-17 -44 -32 -18 -23 -18 -32 -9 -87 15 -83 31 -113 74 -136 34 -18 38 -18 71
-3 41 20 69 73 75 146 l4 52 193 0 192 0 11 -24 c10 -22 7 -28 -35 -62 -53
-44 -115 -135 -138 -203 -22 -66 -27 -487 -6 -508 24 -25 41 3 41 68 0 56 1
59 25 59 24 0 25 3 25 60 0 58 -1 60 -26 60 l-26 0 4 108 c3 101 6 111 43 182
21 41 52 90 69 108 31 33 61 42 68 20 3 -9 37 -14 109 -16 89 -3 111 -7 152
-28 54 -29 106 -27 165 7 26 15 53 19 128 19 81 0 97 3 114 20 11 11 22 20 25
20 9 0 80 -74 104 -109 12 -17 24 -39 26 -50 2 -11 9 -30 16 -43 7 -13 15 -71
17 -130 l5 -108 -27 0 c-25 0 -26 -2 -26 -60 0 -57 1 -60 25 -60 24 0 25 -2
25 -64 0 -57 3 -65 21 -71 11 -4 23 -5 26 -2 2 3 5 108 5 234 0 167 -4 241
-15 278 -20 69 -87 169 -142 212 -43 33 -45 36 -32 56 14 21 23 22 200 25
l185 2 7 -32 c25 -128 43 -160 101 -174 59 -15 119 63 127 165 4 58 -13 86
-61 98 -22 5 -24 10 -19 52 3 25 2 66 -1 91 -6 40 -10 45 -32 45 -24 0 -25 -2
-28 -85 -2 -52 -8 -87 -15 -92 -7 -4 -130 -8 -274 -8 l-263 0 0 25 c0 14 -3
25 -7 25 -17 2 -435 2 -520 1 -91 -1 -93 -2 -93 -25 l0 -24 -275 -1 -274 -2
-3 93 c-3 87 -4 93 -25 96 -11 2 -23 0 -26 -5z"/>
<path d="M43 1433 c-12 -2 -27 -11 -33 -18 -9 -11 -5 -18 21 -34 42 -25 112
-35 199 -26 68 7 70 8 70 34 0 26 -2 27 -83 39 -82 12 -131 13 -174 5z"/>
<path d="M453 1433 c-28 -4 -33 -8 -33 -32 0 -26 2 -27 83 -39 101 -15 122
-15 170 -1 85 23 16 71 -108 75 -44 1 -95 0 -112 -3z"/>
<path d="M1850 1428 c-19 -5 -43 -17 -53 -26 -17 -15 -17 -17 -2 -28 30 -22
95 -26 191 -13 92 12 94 13 94 39 0 24 -5 28 -37 34 -55 9 -152 6 -193 -6z"/>
<path d="M2268 1427 c-65 -10 -68 -11 -68 -38 0 -26 2 -27 70 -34 87 -9 157 1
200 26 30 19 31 22 17 36 -20 20 -128 25 -219 10z"/>
<path d="M950 1003 c-8 -3 -36 -26 -62 -51 l-48 -46 0 -403 0 -403 53 -50 c28
-27 61 -50 72 -50 10 0 36 16 56 36 l37 36 40 -36 c22 -20 48 -36 59 -36 10 0
34 16 53 35 19 19 38 35 42 35 4 0 25 -16 47 -35 21 -19 47 -35 57 -35 10 0
35 16 55 36 l37 36 40 -36 c22 -20 48 -36 59 -36 10 0 40 22 66 48 l47 48 0
404 -1 405 -44 48 c-54 59 -76 60 -131 6 l-42 -41 -37 45 c-44 53 -61 52 -118
-2 l-38 -36 -40 42 c-46 49 -55 48 -115 -9 l-41 -39 -40 45 c-22 25 -42 46
-44 45 -2 0 -11 -3 -19 -6z m451 -201 c89 -45 144 -110 175 -210 20 -67 17
-123 -8 -200 -19 -54 -35 -79 -85 -130 -34 -34 -65 -61 -70 -60 -4 1 -34 -8
-66 -20 -72 -27 -111 -28 -198 -2 -56 17 -78 30 -127 78 -83 80 -106 133 -106
247 0 85 2 94 35 154 67 123 169 181 309 178 62 -2 86 -7 141 -35z"/>
<path d="M1215 708 c-8 -29 -18 -86 -22 -126 l-6 -73 -41 39 c-86 82 -144 107
-131 55 7 -31 44 -93 83 -142 l27 -34 -48 7 c-56 9 -107 0 -107 -19 0 -13 71
-47 125 -59 l29 -7 -37 -22 c-20 -11 -37 -27 -37 -34 0 -19 65 -16 128 6 l52
18 0 -29 c0 -18 5 -28 15 -28 10 0 15 10 15 28 l0 29 53 -18 c68 -24 130 -25
125 -3 -2 9 -18 25 -36 34 l-33 18 33 7 c53 11 128 46 128 60 0 16 -61 26
-118 18 l-44 -6 36 48 c65 85 93 155 62 155 -18 0 -83 -44 -127 -87 l-36 -34
-7 78 c-13 165 -51 221 -81 121z"/>
</g>
</svg>
