<?xml version="1.0" standalone="no"?>
<!DOCTYPE svg PUBLIC "-//W3C//DTD SVG 20010904//EN"
 "http://www.w3.org/TR/2001/REC-SVG-20010904/DTD/svg10.dtd">
<svg version="1.0" xmlns="http://www.w3.org/2000/svg"
 width="185.000000pt" height="131.000000pt" viewBox="0 0 185.000000 131.000000"
 preserveAspectRatio="xMidYMid meet">

<g transform="translate(0.000000,131.000000) scale(0.100000,-0.100000)"
fill="#000000" stroke="none">
<path d="M332 1298 c-7 -7 -12 -44 -12 -95 0 -80 -1 -83 -25 -89 -14 -3 -32
-16 -40 -27 -32 -46 -8 -165 44 -211 29 -26 76 -25 106 4 28 26 55 98 55 147
0 32 2 33 38 33 32 0 41 -5 50 -26 11 -23 8 -29 -48 -81 -43 -39 -71 -77 -97
-131 l-38 -76 0 -240 c0 -234 1 -241 20 -241 18 0 20 8 23 62 3 55 6 63 22 63
18 0 20 7 20 60 0 54 -2 60 -21 60 -20 0 -21 4 -17 113 3 100 7 119 34 177 30
64 104 150 129 150 7 0 18 -7 25 -15 9 -11 35 -15 105 -15 81 0 99 -3 136 -25
29 -16 59 -25 89 -25 30 0 60 9 89 25 37 22 55 25 136 25 83 0 96 2 108 20 14
20 14 20 43 -2 50 -39 74 -71 107 -138 29 -59 32 -76 35 -177 4 -109 3 -113
-17 -113 -19 0 -21 -6 -21 -60 0 -53 2 -60 20 -60 16 0 19 -8 22 -62 3 -55 5
-63 23 -63 19 0 20 7 20 241 l0 240 -38 76 c-26 54 -54 92 -97 131 -56 52 -59
58 -48 81 9 20 19 26 45 26 31 0 33 -2 33 -32 0 -91 52 -171 110 -171 58 0
110 80 110 171 0 45 -13 67 -50 82 -30 12 -30 12 -30 95 0 61 -4 86 -15 95
-12 10 -18 10 -30 0 -11 -9 -15 -34 -15 -96 l0 -84 -115 0 c-63 0 -115 4 -115
9 0 5 -2 16 -5 24 -5 11 11 15 77 20 112 9 130 15 126 41 -3 20 -10 21 -110
24 -77 2 -117 -1 -143 -12 -37 -16 -47 -42 -18 -49 10 -3 -99 -5 -242 -6 -181
0 -255 3 -242 10 56 33 -23 60 -161 57 -100 -3 -107 -4 -110 -24 -4 -27 15
-33 134 -41 l91 -6 -11 -23 c-11 -23 -15 -24 -128 -24 l-118 0 0 83 c0 75 -9
107 -30 107 -3 0 -11 -5 -18 -12z"/>
<path d="M11 1231 c-22 -14 -6 -36 37 -49 41 -12 199 -17 226 -6 9 3 16 14 16
24 0 14 -12 21 -50 29 -61 13 -209 14 -229 2z"/>
<path d="M1630 1233 c-65 -10 -71 -13 -68 -36 3 -21 9 -22 98 -25 101 -3 178
11 187 36 3 8 0 18 -8 23 -14 8 -159 10 -209 2z"/>
<path d="M838 840 c-123 -31 -230 -121 -287 -240 -34 -71 -36 -81 -36 -175 0
-94 2 -104 36 -175 46 -98 111 -163 209 -209 71 -34 81 -36 175 -36 94 0 104
2 175 36 98 46 163 111 209 209 34 71 36 81 36 175 0 94 -2 104 -36 175 -46
97 -112 163 -206 208 -61 29 -87 35 -155 38 -46 2 -100 -1 -120 -6z m259 -59
c87 -41 146 -100 190 -189 35 -70 38 -81 38 -167 0 -86 -3 -97 -38 -167 -44
-91 -103 -148 -195 -191 -60 -28 -77 -31 -157 -31 -80 0 -97 3 -157 31 -92 43
-151 100 -195 191 -35 70 -38 81 -37 166 0 81 3 98 31 158 17 37 50 87 72 111
46 50 139 103 203 117 73 15 176 3 245 -29z"/>
<path d="M911 752 c-21 -39 -42 -147 -43 -226 l-2 -84 -72 67 c-69 65 -138
111 -149 100 -15 -16 57 -141 118 -205 l39 -42 -106 5 c-90 5 -106 4 -106 -9
0 -17 87 -59 160 -78 39 -10 42 -13 25 -22 -45 -23 -85 -54 -85 -64 0 -14 89
-2 150 21 81 30 77 31 73 -14 -2 -33 0 -41 13 -41 14 0 15 7 10 41 -7 47 -16
46 88 10 62 -22 136 -28 136 -11 0 5 -23 23 -51 39 -54 30 -54 30 16 46 55 12
145 57 145 73 0 13 -16 14 -110 10 l-109 -6 48 55 c50 56 119 178 108 190 -13
12 -80 -33 -152 -102 l-73 -70 -5 115 c-4 110 -28 220 -48 220 -5 0 -13 -8
-18 -18z"/>
</g>
</svg>
