<?xml version="1.0" standalone="no"?>
<!DOCTYPE svg PUBLIC "-//W3C//DTD SVG 20010904//EN"
 "http://www.w3.org/TR/2001/REC-SVG-20010904/DTD/svg10.dtd">
<svg version="1.0" xmlns="http://www.w3.org/2000/svg"
 width="153.000000pt" height="139.000000pt" viewBox="0 0 153.000000 139.000000"
 preserveAspectRatio="xMidYMid meet">

<g transform="translate(0.000000,139.000000) scale(0.100000,-0.100000)"
fill="#000000" stroke="none">
<path d="M850 1225 c-346 -150 -377 -162 -397 -149 -187 118 -282 164 -336
164 -35 0 -77 -37 -77 -66 0 -31 21 -73 50 -99 12 -11 81 -56 153 -100 l132
-80 17 -120 c10 -66 34 -241 53 -390 20 -148 39 -279 41 -290 5 -21 125 -98
135 -87 3 4 14 92 23 197 9 104 18 190 19 191 1 1 27 -2 59 -8 102 -18 226 28
302 112 29 32 43 40 59 36 43 -11 48 -22 58 -122 14 -139 14 -138 60 -168 22
-15 42 -26 43 -24 2 2 18 59 36 128 l32 125 95 96 c101 102 100 100 36 133
-31 15 -33 15 -135 -34 -57 -27 -108 -50 -113 -50 -6 0 -25 10 -43 22 -32 22
-33 25 -36 104 -3 94 -30 162 -95 236 l-40 44 196 144 c141 104 191 145 181
152 -18 13 -127 68 -130 67 -2 -1 -172 -74 -378 -164z m64 -179 c126 -62 206
-203 192 -340 -30 -291 -380 -414 -583 -204 -111 114 -127 287 -40 426 42 65
122 122 202 143 60 16 170 4 229 -25z"/>
<path d="M688 1047 c-87 -25 -166 -91 -210 -176 -32 -63 -33 -194 -2 -262 31
-66 87 -124 152 -156 49 -24 69 -28 142 -28 73 0 92 4 136 27 157 82 220 269
144 424 -53 108 -141 168 -265 179 -27 3 -71 -1 -97 -8z m82 -32 c0 -2 7 -30
15 -61 8 -31 16 -90 17 -131 1 -40 3 -73 5 -73 2 0 17 15 34 34 32 37 137 111
145 103 9 -8 -42 -100 -84 -153 l-39 -50 91 3 91 4 -23 -20 c-12 -11 -46 -27
-75 -36 -28 -9 -59 -19 -67 -21 -12 -4 -11 -7 5 -16 45 -24 65 -39 61 -47 -7
-11 -100 5 -138 23 -38 20 -46 15 -40 -25 3 -22 1 -30 -7 -25 -6 4 -11 20 -11
37 0 16 -2 29 -4 29 -2 0 -23 -8 -47 -19 -54 -23 -129 -35 -129 -21 0 5 16 20
35 32 38 25 44 38 19 38 -25 0 -134 51 -134 63 0 6 32 8 84 5 l85 -4 -38 45
c-40 48 -96 149 -87 158 8 9 115 -68 145 -104 l28 -34 6 83 c7 89 32 188 47
188 6 0 10 -2 10 -5z m219 -71 c57 -61 81 -116 81 -186 0 -32 -3 -58 -6 -58
-5 0 -101 56 -112 65 -1 1 10 28 24 59 34 75 24 87 -46 49 -29 -15 -55 -33
-57 -40 -3 -9 -11 -9 -28 -1 -28 13 -42 56 -23 74 29 28 104 83 114 83 6 1 30
-20 53 -45z m-9 -354 c22 -11 40 -24 40 -29 0 -14 -76 -79 -118 -100 -48 -25
-126 -36 -186 -27 l-46 7 0 42 c0 49 8 64 43 82 25 13 26 12 29 -18 4 -41 32
-44 36 -4 2 15 5 27 6 27 2 0 22 -6 44 -14 22 -8 60 -16 84 -18 37 -3 43 0 43
17 0 13 -12 26 -35 37 -35 18 -35 18 -7 18 15 0 46 -9 67 -20z"/>
</g>
</svg>
