<?xml version="1.0" encoding="utf-8"?><svg version="1.1" id="Layer_1" xmlns="http://www.w3.org/2000/svg" xmlns:xlink="http://www.w3.org/1999/xlink" x="0px" y="0px" viewBox="0 0 103.05 122.88" style="enable-background:new 0 0 103.05 122.88" xml:space="preserve"><g><path d="M28.39,28.72c0.13,0.55-0.22,1.09-0.76,1.21c-0.55,0.12-1.09-0.22-1.21-0.76c-0.23-0.99-0.18-1.88,0.06-2.7 c0.24-0.8,0.66-1.51,1.19-2.16c0.35-0.43,0.99-0.5,1.42-0.15c0.05,0.04,0.1,0.09,0.14,0.14c1.51,1.59,3.25,2.53,4.9,2.78 c0.79,0.12,1.56,0.08,2.27-0.12c0.7-0.2,1.33-0.55,1.88-1.05c0.9-0.85,1.57-2.14,1.84-3.91c0.08-0.55,0.6-0.94,1.15-0.85 c0.21,0.03,0.39,0.12,0.53,0.25c1.44,1.19,2.85,1.81,4.23,1.87c1.39,0.06,2.81-0.44,4.24-1.49c0.44-0.32,1.05-0.23,1.38,0.18l0,0 c1.88,2.34,3.69,3.34,5.44,3.16c1.82-0.19,3.7-1.63,5.64-4.15c0.22-0.29,0.58-0.43,0.92-0.39v0c4.14,0.49,6.63-0.72,7.8-2.49 c0.65-0.99,0.9-2.16,0.8-3.32c-0.1-1.17-0.55-2.3-1.3-3.19c-1.25-1.48-3.36-2.3-6.11-1.46c-0.39,0.12-0.8-0.01-1.06-0.3l0,0 c-1.5-1.71-2.99-2.92-4.42-3.62c-1.14-0.57-2.23-0.81-3.23-0.72c-0.97,0.08-1.87,0.48-2.68,1.19c-0.71,0.62-1.35,1.49-1.9,2.6 c-0.24,0.48-0.8,0.69-1.28,0.49l0,0c-0.77-0.31-1.53-0.51-2.28-0.61c-0.75-0.1-1.5-0.1-2.25,0c-0.48,0.06-0.92-0.21-1.08-0.64l0,0 c-1.04-2.72-2.43-4.01-4.03-4.36c-1.68-0.37-3.72,0.21-5.91,1.22c-0.43,0.2-0.93,0.07-1.21-0.29c-1.67-1.76-3.65-2.72-5.56-2.98 c-1.41-0.19-2.78-0.01-3.96,0.5c-1.16,0.5-2.14,1.32-2.8,2.42c-0.74,1.24-1.08,2.85-0.8,4.78c0.08,0.55-0.31,1.07-0.86,1.15 l-0.03,0v0c-2.88,0.33-4.85,1.92-5.67,3.76c-0.31,0.7-0.46,1.44-0.42,2.15c0.03,0.69,0.24,1.35,0.63,1.94 c0.93,1.4,2.94,2.38,6.2,2.24c0.56-0.02,1.03,0.41,1.05,0.97c0.01,0.27-0.09,0.53-0.26,0.72c-0.66,0.75-1.22,1.52-1.66,2.31 c-0.43,0.77-0.74,1.57-0.92,2.4c-0.11,0.55-0.65,0.9-1.2,0.79c-0.55-0.11-0.9-0.65-0.79-1.2c0.22-1.03,0.6-2.02,1.13-2.97 c0.2-0.36,0.41-0.7,0.65-1.05c-2.9-0.29-4.83-1.5-5.9-3.09c-0.6-0.9-0.92-1.92-0.97-2.97c-0.05-1.02,0.15-2.08,0.6-3.07 c0.99-2.21,3.16-4.14,6.3-4.79c-0.11-1.99,0.33-3.71,1.17-5.11c0.88-1.47,2.19-2.57,3.73-3.24c1.52-0.66,3.26-0.89,5.03-0.65 c2.17,0.3,4.39,1.31,6.3,3.14c2.32-1,4.54-1.51,6.55-1.07c2.11,0.47,3.89,1.93,5.2,4.9c0.67-0.04,1.34-0.01,2,0.08 c0.64,0.09,1.28,0.23,1.91,0.43c0.58-0.98,1.23-1.79,1.96-2.43c1.14-1,2.44-1.56,3.84-1.69c1.37-0.12,2.82,0.19,4.3,0.92 c1.52,0.75,3.08,1.96,4.62,3.64c3.35-0.8,5.99,0.33,7.62,2.27c1.03,1.22,1.64,2.76,1.78,4.33c0.13,1.58-0.22,3.21-1.13,4.6 c-1.49,2.27-4.45,3.86-9.15,3.45c-2.17,2.69-4.39,4.24-6.68,4.48c-2.26,0.24-4.47-0.78-6.63-3.19c-1.56,0.96-3.13,1.42-4.73,1.35 c-1.41-0.06-2.81-0.53-4.19-1.41c-0.45,1.47-1.19,2.64-2.11,3.5c-0.79,0.74-1.71,1.25-2.71,1.53c-0.99,0.28-2.04,0.34-3.12,0.17 c-1.76-0.27-3.57-1.12-5.2-2.56c-0.08,0.17-0.15,0.34-0.2,0.51C28.27,27.54,28.24,28.1,28.39,28.72L28.39,28.72z M0,117.75h93.74 v5.13H0V117.75L0,117.75z M46.86,45l-1.11,10.68h12L56.64,45H46.86L46.86,45z M15.31,31.27l-1.55,14.92h16.76l-1.55-14.92H15.31 L15.31,31.27z M13.47,49.03l-0.76,7.32h18.87l-0.76-7.32H13.47L13.47,49.03z M12.42,59.2l-1.13,10.59l-7.06-1.3v46.7h85.28V84.15 l-29.79-5.47l-1.01-13.69H44.79l-0.68,10.82l-10.68-1.96L31.87,59.2H12.42L12.42,59.2z M45.54,57.72L45,62.96H58.5l-0.54-5.24 H45.54L45.54,57.72z M56.21,90.75h14.25v17.12H56.21V90.75L56.21,90.75z M37.92,90.75h14.25v17.12H37.92V90.75L37.92,90.75z M19.63,90.75h14.25v17.12H19.63V90.75L19.63,90.75z M76.77,19.53c-0.51-0.22-0.75-0.82-0.52-1.33c0.22-0.51,0.82-0.75,1.33-0.52 c0.37,0.16,0.68,0.37,0.99,0.59c0.55-1.32,1.33-2.41,2.24-3.24c1.13-1.02,2.47-1.64,3.87-1.8c1.4-0.16,2.86,0.13,4.22,0.93 c1.21,0.71,2.34,1.82,3.27,3.36c4.32-0.92,7.34,0.35,9.1,2.46c1.25,1.5,1.83,3.42,1.78,5.28c-0.05,1.89-0.75,3.73-2.07,5.07 c-1.72,1.74-4.45,2.62-8.11,1.57c-0.88,1.68-2.18,2.96-3.66,3.76c-0.98,0.54-2.04,0.86-3.09,0.96c-1.08,0.1-2.15-0.04-3.15-0.45 c-1.12-0.45-2.14-1.23-2.94-2.36c-1.59,0.58-3.14,0.95-4.65,1c-1.5,0.05-2.95-0.22-4.33-0.89c-1.66,2.52-3.61,4.04-5.87,4.51 c-2.04,0.42-4.27-0.04-6.7-1.43v5.31c0,0.56-0.45,1.02-1.02,1.02h-7.73c-0.56,0-1.02-0.45-1.02-1.02v-9.34 c-1-0.09-1.98-0.36-2.93-0.78c-1.25-0.56-2.44-1.39-3.59-2.49c-0.41-0.39-0.42-1.03-0.04-1.43c0.39-0.41,1.03-0.42,1.43-0.04 c0.98,0.94,1.99,1.65,3.02,2.11c0.98,0.44,1.98,0.65,3.01,0.64C49.67,31,49.7,31,49.74,31c0.56,0,1.02,0.45,1.02,1.02v9.3h5.7 v-6.16h0c0-0.2,0.06-0.41,0.19-0.59c0.32-0.46,0.96-0.56,1.41-0.24c2.57,1.84,4.81,2.53,6.72,2.13c1.9-0.39,3.57-1.88,5.04-4.4l0,0 l0.02-0.03c0.3-0.47,0.93-0.61,1.4-0.31c1.27,0.81,2.64,1.12,4.08,1.08c1.49-0.05,3.07-0.47,4.7-1.14 c0.48-0.22,1.06-0.04,1.32,0.43c0.61,1.11,1.45,1.83,2.39,2.21c0.7,0.28,1.45,0.38,2.21,0.31c0.78-0.07,1.57-0.32,2.31-0.72 c1.32-0.72,2.46-1.94,3.13-3.57c0.19-0.52,0.76-0.79,1.29-0.61c3.24,1.15,5.53,0.56,6.87-0.8c0.95-0.96,1.45-2.31,1.49-3.7 c0.04-1.41-0.39-2.84-1.31-3.94c-1.39-1.67-3.95-2.61-7.76-1.63c-0.46,0.14-0.96-0.06-1.19-0.5c-0.82-1.56-1.82-2.62-2.89-3.25 c-0.96-0.57-1.99-0.78-2.97-0.66c-0.98,0.11-1.93,0.56-2.74,1.28c-0.92,0.83-1.66,2.03-2.08,3.55l0,0 c-0.01,0.05-0.03,0.09-0.05,0.14c-0.23,0.51-0.82,0.74-1.33,0.52c-0.44-0.19-0.79-0.45-1.14-0.7 C77.28,19.83,77.01,19.64,76.77,19.53L76.77,19.53z"/></g></svg>