<?xml version="1.0" standalone="no"?>
<!DOCTYPE svg PUBLIC "-//W3C//DTD SVG 20010904//EN"
 "http://www.w3.org/TR/2001/REC-SVG-20010904/DTD/svg10.dtd">
<svg version="1.0" xmlns="http://www.w3.org/2000/svg"
 width="214.000000pt" height="206.000000pt" viewBox="0 0 214.000000 206.000000"
 preserveAspectRatio="xMidYMid meet">

<g transform="translate(0.000000,206.000000) scale(0.100000,-0.100000)"
fill="#000000" stroke="none">
<path d="M538 2036 c-76 -27 -124 -76 -148 -150 -27 -83 6 -298 55 -362 44
-58 37 -72 -91 -185 -82 -72 -122 -115 -134 -143 -16 -36 -93 -526 -85 -534 2
-2 42 9 90 23 93 29 312 75 352 75 15 0 53 23 96 59 40 32 107 82 150 111 42
29 80 56 82 60 3 5 1 20 -5 35 -9 24 -15 27 -43 22 -17 -2 -47 2 -66 9 -41 17
-64 11 -85 -21 -15 -23 -124 -94 -259 -170 l-69 -38 26 50 c22 44 35 56 112
99 49 27 114 73 146 102 54 51 60 54 104 50 l46 -3 49 108 48 109 -32 26 c-58
49 -87 80 -87 97 0 9 14 37 31 61 33 49 69 189 69 275 0 106 -63 201 -155 233
-58 19 -146 20 -197 2z m36 -246 c40 -6 83 -6 132 1 87 13 104 5 104 -48 0
-43 -34 -79 -84 -88 -19 -4 -73 -5 -120 -4 -104 5 -139 25 -144 84 -6 69 2 73
112 55z"/>
<path d="M960 1476 c0 -25 5 -35 20 -39 36 -9 23 -50 -46 -148 -74 -105 -114
-166 -114 -175 0 -3 18 -3 39 1 51 9 75 -5 95 -55 9 -22 18 -40 20 -40 7 0 92
39 97 45 9 8 -11 105 -27 138 -17 31 -10 33 -85 -23 -32 -23 -30 -19 22 55 72
104 89 137 89 178 0 37 -27 73 -67 88 -38 14 -43 11 -43 -25z"/>
<path d="M1194 999 c-138 -13 -277 -85 -473 -244 -75 -61 -77 -61 -181 -79
-252 -44 -434 -107 -459 -162 -10 -24 -10 -24 39 -24 28 0 50 -4 50 -8 0 -16
-47 -53 -76 -61 -21 -5 -30 -14 -32 -33 -2 -14 -14 -36 -28 -49 -34 -32 -34
-105 1 -147 20 -24 38 -32 91 -41 37 -7 69 -9 72 -6 3 3 5 28 3 55 -8 152 115
280 269 280 154 0 277 -128 269 -282 l-3 -53 344 0 345 0 1 45 c3 137 51 216
163 268 45 21 64 24 120 20 147 -11 240 -106 251 -258 l5 -75 55 3 c33 2 65
10 80 21 22 16 25 27 28 88 3 63 0 74 -23 101 -22 26 -25 39 -25 106 l0 76
-27 0 c-37 0 -49 9 -63 44 -13 36 1 56 41 56 21 0 29 5 29 18 -1 66 -84 263
-130 307 -25 24 -39 28 -132 36 -125 10 -492 9 -604 -2z m220 -106 c3 -10 6
-58 8 -108 l2 -90 -283 -9 c-296 -9 -319 -7 -295 32 16 25 128 99 211 139 75
36 144 49 285 52 56 1 68 -2 72 -16z m356 8 c63 -6 65 -7 83 -44 24 -51 36
-118 26 -145 -8 -21 -13 -22 -177 -22 l-169 0 -7 38 c-3 20 -6 70 -6 110 l0
72 93 -1 c50 -1 121 -4 157 -8z"/>
<path d="M380 398 c-125 -64 -156 -216 -64 -318 50 -56 94 -73 170 -68 52 3
70 9 100 34 53 42 75 75 84 123 31 171 -139 305 -290 229z m138 -114 c55 -39
48 -119 -13 -149 -32 -15 -38 -15 -69 0 -60 29 -73 90 -27 136 33 33 74 38
109 13z"/>
<path d="M1598 394 c-67 -34 -101 -89 -106 -169 -8 -124 77 -215 201 -215 178
0 271 204 154 337 -65 74 -163 92 -249 47z m149 -109 c24 -17 39 -71 28 -105
-10 -30 -63 -61 -95 -53 -33 7 -67 39 -74 69 -7 28 15 78 41 93 26 15 76 13
100 -4z"/>
</g>
</svg>
