<svg id="svg" version="1.1" xmlns="http://www.w3.org/2000/svg" xmlns:xlink="http://www.w3.org/1999/xlink" width="400" height="309.50819672131144" viewBox="0, 0, 400,309.50819672131144"><g id="svgg"><path id="path0" d="M0.000 5.263 C 0.000 10.502,0.170 11.281,0.989 9.793 C 1.211 9.389,1.699 8.504,2.073 7.825 C 3.031 6.087,6.752 2.483,8.634 1.471 C 11.094 0.148,10.739 0.000,5.108 0.000 L 0.000 0.000 0.000 5.263 M390.402 0.411 C 390.402 0.638,391.097 1.148,391.946 1.546 C 393.774 2.402,397.736 6.340,398.724 8.282 C 399.822 10.441,400.000 9.955,400.000 4.799 L 400.000 0.000 395.201 0.000 C 391.416 0.000,390.402 0.087,390.402 0.411 M-0.000 154.725 L 0.000 275.549 11.687 275.468 L 23.375 275.387 23.452 154.867 C 23.515 58.609,23.452 34.318,23.143 34.207 C 22.930 34.131,17.635 34.031,11.378 33.985 L -0.000 33.901 -0.000 154.725 M78.342 33.980 C 64.131 34.024,52.393 34.171,52.257 34.306 C 51.808 34.756,51.946 274.999,52.396 275.284 C 52.847 275.570,76.792 275.637,77.529 275.354 C 77.967 275.186,78.019 273.425,78.019 258.652 C 78.019 243.389,78.280 236.173,78.950 232.972 C 80.676 224.718,81.321 222.498,83.490 217.337 C 87.606 207.546,92.576 200.231,100.293 192.608 L 104.799 188.157 104.879 111.479 C 104.943 50.172,104.881 34.711,104.570 34.351 C 104.233 33.963,100.633 33.912,78.342 33.980 M241.051 33.980 C 222.430 34.038,215.268 34.156,214.960 34.412 C 214.627 34.687,214.554 35.777,214.621 39.441 L 214.706 44.118 216.564 44.737 C 217.587 45.077,218.562 45.444,218.732 45.552 C 218.901 45.660,219.502 45.847,220.067 45.968 C 221.979 46.378,228.110 49.043,231.115 50.770 C 231.966 51.259,232.986 51.809,233.380 51.991 C 234.002 52.278,236.079 53.719,236.533 54.178 C 236.618 54.264,237.341 54.790,238.139 55.346 C 241.403 57.621,248.748 64.915,250.607 67.728 C 251.028 68.364,251.788 69.443,252.296 70.124 C 253.834 72.187,256.552 77.070,257.897 80.186 C 258.595 81.803,259.368 83.497,259.614 83.949 C 259.860 84.401,260.062 84.996,260.062 85.272 C 260.062 85.548,260.344 86.572,260.690 87.546 C 261.532 89.925,262.417 94.428,263.154 100.090 C 263.993 106.543,263.003 116.111,260.649 124.303 C 259.887 126.954,257.425 133.187,256.675 134.365 C 256.512 134.621,256.198 135.188,255.976 135.627 C 249.204 149.013,234.769 160.986,219.372 165.987 C 214.859 167.453,214.551 167.698,214.551 169.813 C 214.551 172.261,213.413 172.136,235.731 172.136 C 247.687 172.136,255.979 172.259,256.989 172.450 C 257.900 172.623,259.874 172.903,261.378 173.074 C 262.881 173.244,264.740 173.552,265.508 173.757 C 266.687 174.073,266.952 174.060,267.195 173.675 C 267.673 172.919,267.584 34.505,267.105 34.171 C 266.890 34.021,255.308 33.936,241.051 33.980 M296.361 34.365 C 295.849 34.805,295.825 38.909,295.899 111.650 L 295.978 188.469 297.398 189.823 C 307.325 199.287,310.025 202.869,315.454 213.777 C 318.730 220.357,321.352 228.943,321.980 235.139 C 322.135 236.672,322.413 239.040,322.598 240.402 C 322.810 241.970,322.912 248.848,322.876 259.133 L 322.818 275.387 335.444 275.468 C 344.507 275.526,348.190 275.450,348.493 275.198 C 348.974 274.799,349.137 35.192,348.657 34.436 C 348.249 33.794,297.105 33.725,296.361 34.365 M133.514 34.261 C 133.206 34.385,133.127 48.671,133.127 104.238 L 133.127 174.059 134.288 173.894 C 134.926 173.803,136.215 173.587,137.152 173.415 C 143.652 172.221,145.364 172.143,165.699 172.116 C 184.158 172.091,185.742 172.048,185.861 171.571 C 186.699 168.214,186.210 167.510,182.198 166.304 C 178.362 165.150,177.665 164.857,171.871 161.969 C 166.708 159.394,166.340 159.189,164.843 158.050 C 164.172 157.539,163.483 157.021,163.313 156.899 C 163.143 156.778,162.515 156.285,161.920 155.806 C 161.324 155.326,160.348 154.574,159.752 154.133 C 155.506 150.997,148.053 141.959,145.365 136.687 C 145.105 136.176,144.460 134.992,143.932 134.056 C 143.405 133.119,142.722 131.726,142.416 130.960 C 142.109 130.193,141.485 128.661,141.028 127.554 C 138.819 122.203,137.180 112.996,137.171 105.882 C 137.164 100.782,137.248 99.929,138.352 93.808 C 139.009 90.170,140.616 84.749,141.794 82.198 C 141.951 81.858,142.584 80.464,143.201 79.102 C 144.992 75.147,148.240 69.926,150.906 66.718 C 154.622 62.247,162.812 54.611,165.480 53.131 C 165.991 52.847,166.966 52.271,167.647 51.850 C 171.775 49.297,178.958 46.281,185.338 44.421 C 185.670 44.324,186.137 34.880,185.839 34.288 C 185.711 34.034,134.142 34.007,133.514 34.261 M377.569 34.342 C 377.166 34.993,377.379 275.028,377.783 275.284 C 377.998 275.421,383.084 275.534,389.087 275.537 L 400.000 275.542 400.000 154.799 L 400.000 34.056 388.873 34.056 C 382.406 34.056,377.672 34.175,377.569 34.342 M188.666 86.835 C 187.289 87.414,187.315 87.051,187.311 105.785 C 187.306 123.658,187.335 124.057,188.712 124.959 C 190.064 125.845,190.083 125.569,190.083 105.882 C 190.083 85.761,190.118 86.225,188.666 86.835 M210.526 106.192 C 210.526 116.749,210.603 125.387,210.697 125.387 C 210.791 125.387,211.417 125.074,212.088 124.690 L 213.308 123.994 213.310 106.008 C 213.313 86.098,213.405 86.997,211.353 86.997 L 210.526 86.997 210.526 106.192 M187.692 213.051 C 187.040 213.703,187.139 268.829,187.793 269.483 C 188.391 270.081,189.280 270.111,189.747 269.548 C 190.002 269.241,190.075 261.522,190.017 240.988 L 189.938 212.848 189.008 212.757 C 188.496 212.707,187.904 212.839,187.692 213.051 M210.733 212.900 C 210.619 213.013,210.526 225.766,210.526 241.238 L 210.526 269.370 211.195 269.617 C 211.562 269.753,212.189 269.802,212.588 269.726 L 213.313 269.587 213.313 241.331 L 213.313 213.075 212.616 212.889 C 211.695 212.642,210.987 212.646,210.733 212.900 M135.009 215.299 C 134.106 216.260,134.371 217.221,135.614 217.495 C 136.115 217.605,136.609 217.829,136.710 217.994 C 136.812 218.158,137.429 218.506,138.083 218.768 C 138.736 219.029,139.347 219.441,139.440 219.683 C 139.533 219.926,139.752 220.124,139.926 220.124 C 140.946 220.124,145.982 224.857,147.790 227.515 C 151.982 233.679,153.223 243.206,150.487 248.215 C 150.323 248.515,149.824 249.520,149.380 250.447 C 145.428 258.690,133.864 265.915,123.316 266.730 C 120.024 266.985,118.471 267.676,118.633 268.816 C 118.741 269.575,122.616 269.781,126.171 269.217 C 127.320 269.035,128.111 269.100,129.184 269.464 C 130.921 270.054,132.028 269.761,132.310 268.638 C 132.431 268.153,132.864 267.745,133.510 267.506 C 134.066 267.300,134.729 267.003,134.985 266.847 C 135.240 266.690,135.797 266.416,136.223 266.237 C 141.118 264.179,148.910 257.818,150.615 254.489 C 150.920 253.893,151.255 253.336,151.359 253.251 C 154.216 250.911,155.807 237.955,153.861 232.885 C 152.291 228.796,150.117 225.159,147.669 222.523 C 146.997 221.800,146.446 221.103,146.443 220.975 C 146.441 220.848,146.238 220.743,145.991 220.743 C 145.744 220.743,145.430 220.545,145.294 220.303 C 144.625 219.112,137.272 214.551,136.022 214.551 C 135.851 214.551,135.396 214.888,135.009 215.299 M261.749 215.817 C 259.059 217.193,254.217 220.930,252.783 222.739 C 252.274 223.381,251.540 224.274,251.152 224.724 C 249.982 226.081,249.947 226.138,248.499 228.983 C 245.987 233.924,244.989 239.390,245.819 243.653 C 246.508 247.188,247.546 250.275,248.631 252.012 C 248.790 252.268,249.089 252.825,249.294 253.251 C 249.499 253.676,249.991 254.443,250.388 254.954 C 250.785 255.464,251.348 256.196,251.639 256.579 C 252.865 258.196,256.110 261.303,257.709 262.392 C 259.555 263.650,260.247 264.086,261.357 264.693 C 261.984 265.036,262.574 265.442,262.669 265.595 C 262.764 265.749,263.317 265.963,263.897 266.072 C 264.478 266.181,265.124 266.476,265.332 266.726 C 265.540 266.977,265.997 267.183,266.348 267.183 C 266.706 267.183,267.566 267.807,268.317 268.613 C 269.733 270.134,269.943 270.173,272.049 269.317 C 272.849 268.992,273.400 268.986,274.854 269.286 C 277.904 269.916,281.318 269.790,281.514 269.040 C 281.643 268.548,281.495 267.193,281.311 267.180 C 278.515 266.970,273.062 266.174,271.816 265.793 C 269.733 265.156,265.481 263.552,264.590 263.066 C 263.653 262.555,260.894 260.889,260.526 260.612 C 257.123 258.047,252.941 253.974,252.941 253.225 C 252.941 253.093,252.749 252.793,252.515 252.559 C 252.280 252.324,251.667 251.304,251.153 250.292 C 246.683 241.498,248.437 231.386,255.682 224.179 C 258.605 221.271,261.273 219.230,262.775 218.754 C 263.156 218.633,263.467 218.410,263.467 218.258 C 263.467 218.106,264.025 217.815,264.706 217.610 C 266.250 217.148,266.397 216.154,265.061 215.203 L 264.179 214.574 261.749 215.817 M0.000 304.180 L 0.000 309.598 5.573 309.598 C 11.833 309.598,11.944 309.548,8.987 308.077 C 5.853 306.518,2.039 302.453,0.899 299.458 C 0.233 297.706,0.000 298.930,0.000 304.180 M398.961 300.697 C 397.832 302.823,397.531 303.217,395.592 305.109 C 394.493 306.181,392.737 307.504,391.689 308.049 C 388.952 309.474,389.209 309.598,394.892 309.598 L 400.000 309.598 400.000 304.644 C 400.000 299.514,399.864 298.997,398.961 300.697 " stroke="none" fill="#f6f6f6" fill-rule="evenodd"></path><path id="path1" d="M14.241 0.415 C 14.241 0.643,13.649 1.004,12.926 1.218 C 11.364 1.678,8.408 3.083,7.785 3.659 C 7.542 3.884,7.000 4.293,6.580 4.568 C 5.693 5.149,2.786 8.890,2.786 9.451 C 2.786 9.660,2.595 9.990,2.361 10.184 C 2.127 10.378,1.770 11.379,1.568 12.409 C 1.365 13.438,0.930 14.550,0.600 14.880 C 0.036 15.444,0.000 15.982,0.000 23.803 L -0.000 32.126 0.697 32.313 C 1.080 32.415,6.422 32.501,12.568 32.504 C 22.998 32.507,23.777 32.545,24.255 33.074 C 24.730 33.599,24.768 42.486,24.768 154.687 L 24.768 275.735 24.137 276.412 C 23.509 277.086,23.444 277.090,11.753 277.090 L 0.000 277.090 0.000 285.492 C 0.000 292.514,0.075 293.951,0.454 294.238 C 0.704 294.427,1.117 295.395,1.373 296.388 C 2.714 301.603,8.821 308.050,12.421 308.050 C 13.221 308.050,15.480 308.989,15.480 309.322 C 15.480 309.848,384.859 309.672,385.260 309.146 C 385.449 308.897,386.300 308.531,387.152 308.331 C 392.189 307.151,396.796 303.128,398.582 298.352 C 398.889 297.530,399.333 296.784,399.570 296.693 C 399.924 296.557,400.000 294.818,400.000 286.809 L 400.000 277.090 388.604 277.090 C 379.251 277.090,377.100 277.011,376.607 276.650 C 375.772 276.040,375.489 34.501,376.322 33.229 L 376.794 32.508 388.397 32.508 L 400.000 32.508 400.000 22.789 C 400.000 14.746,399.925 13.041,399.567 12.903 C 399.328 12.812,398.960 12.205,398.747 11.554 C 397.874 8.881,395.087 5.109,393.017 3.798 C 392.686 3.589,391.880 3.062,391.227 2.628 C 390.573 2.194,389.347 1.691,388.502 1.510 C 387.594 1.315,386.815 0.939,386.597 0.590 C 386.114 -0.184,14.241 -0.359,14.241 0.415 M105.573 33.127 C 106.189 33.743,106.192 34.159,106.192 110.973 L 106.192 188.200 105.542 189.301 C 105.185 189.907,104.791 190.402,104.668 190.402 C 104.443 190.402,99.278 195.436,97.174 197.705 C 96.556 198.371,95.126 200.170,93.995 201.703 C 92.864 203.235,91.732 204.710,91.480 204.980 C 91.228 205.249,91.022 205.584,91.022 205.724 C 91.022 205.864,90.673 206.435,90.248 206.993 C 89.822 207.552,89.474 208.138,89.474 208.297 C 89.474 208.455,89.214 208.917,88.897 209.324 C 88.580 209.730,88.213 210.410,88.081 210.836 C 87.950 211.262,87.750 211.680,87.637 211.765 C 87.442 211.912,86.853 213.110,85.022 217.086 C 84.576 218.055,84.210 219.030,84.209 219.253 C 84.208 219.477,83.999 220.058,83.745 220.545 C 83.150 221.685,82.211 224.984,80.955 230.341 C 79.981 234.498,79.777 238.501,79.595 257.011 C 79.420 274.899,79.384 275.818,78.822 276.439 C 78.240 277.081,78.056 277.090,64.990 277.090 C 50.861 277.090,50.777 277.081,50.772 275.597 C 50.591 215.739,50.853 33.250,51.121 32.927 C 51.782 32.131,104.771 32.325,105.573 33.127 M186.860 32.947 C 187.408 33.347,187.470 33.860,187.558 38.759 C 187.676 45.316,187.551 45.585,184.045 46.320 C 182.885 46.563,181.786 46.882,181.603 47.030 C 181.419 47.177,180.782 47.401,180.186 47.529 C 179.590 47.656,178.617 48.021,178.023 48.338 C 177.430 48.656,176.781 48.916,176.581 48.916 C 176.245 48.916,173.512 50.165,172.446 50.806 C 172.190 50.959,171.677 51.217,171.305 51.379 C 170.590 51.689,166.008 54.430,165.480 54.863 C 165.310 55.003,164.195 55.833,163.003 56.708 C 160.482 58.559,159.305 59.614,155.986 63.003 C 152.778 66.279,152.939 66.094,151.127 68.576 C 150.257 69.768,149.436 70.882,149.303 71.053 C 149.089 71.327,147.869 73.320,146.838 75.077 C 144.370 79.288,141.238 87.235,140.557 91.014 C 140.358 92.116,140.068 93.256,139.912 93.546 C 138.661 95.885,138.601 113.015,139.829 117.492 C 140.062 118.344,140.394 119.876,140.566 120.898 C 140.738 121.920,141.009 123.034,141.168 123.375 C 141.328 123.715,141.665 124.690,141.917 125.542 C 142.170 126.393,142.740 127.926,143.184 128.947 C 143.628 129.969,144.128 131.153,144.295 131.579 C 145.602 134.903,149.259 140.850,152.386 144.737 C 154.380 147.214,161.935 154.489,162.515 154.489 C 162.681 154.489,162.940 154.708,163.090 154.976 C 163.240 155.244,163.650 155.627,164.002 155.828 C 164.354 156.028,165.387 156.690,166.299 157.299 C 167.211 157.908,168.375 158.666,168.885 158.985 C 170.258 159.839,175.029 162.219,175.387 162.227 C 175.557 162.231,176.393 162.577,177.245 162.996 C 178.096 163.415,179.002 163.763,179.257 163.769 C 179.512 163.776,180.127 163.993,180.623 164.251 C 181.119 164.510,182.474 164.937,183.633 165.201 C 187.000 165.967,187.712 166.827,187.570 169.960 C 187.401 173.681,189.849 173.311,164.396 173.462 C 148.152 173.558,142.017 173.692,141.345 173.965 C 140.842 174.169,139.100 174.537,137.475 174.782 C 135.850 175.026,134.149 175.311,133.696 175.415 C 131.745 175.861,131.876 181.288,131.964 103.814 C 132.031 44.785,132.111 33.450,132.468 33.020 C 133.068 32.297,185.873 32.226,186.860 32.947 M268.296 33.159 C 269.006 33.945,269.407 172.656,268.704 174.363 C 268.321 175.293,266.956 175.769,266.040 175.291 C 265.732 175.131,264.517 174.899,263.339 174.776 C 262.162 174.653,260.560 174.344,259.779 174.088 C 258.588 173.698,254.785 173.600,236.223 173.478 C 210.671 173.309,213.313 173.754,213.313 169.621 C 213.313 166.445,214.655 165.055,217.771 165.005 C 218.128 164.999,218.978 164.725,219.659 164.396 C 220.341 164.067,221.109 163.793,221.367 163.788 C 221.625 163.782,222.321 163.520,222.915 163.205 C 223.508 162.891,224.412 162.532,224.923 162.407 C 225.433 162.283,226.060 162.000,226.316 161.780 C 226.571 161.559,227.301 161.211,227.937 161.007 C 228.573 160.803,229.175 160.505,229.274 160.344 C 229.373 160.184,229.897 159.848,230.439 159.599 C 230.981 159.350,231.703 158.971,232.043 158.759 C 233.771 157.679,237.049 155.529,237.459 155.206 C 241.357 152.139,245.428 148.273,247.225 145.932 C 247.766 145.228,248.374 144.461,248.578 144.230 C 248.781 143.998,249.637 142.833,250.481 141.641 C 251.325 140.449,252.224 139.202,252.478 138.869 C 252.733 138.536,252.941 138.159,252.941 138.031 C 252.941 137.903,253.280 137.299,253.695 136.688 C 254.360 135.708,255.236 133.962,257.270 129.567 C 257.586 128.885,258.012 127.771,258.219 127.090 C 258.426 126.409,258.703 125.712,258.836 125.542 C 258.969 125.372,259.172 124.675,259.287 123.994 C 259.402 123.313,259.763 121.954,260.089 120.974 C 260.415 119.994,260.683 118.810,260.685 118.342 C 260.687 117.875,260.964 116.169,261.300 114.551 C 261.955 111.398,262.158 101.660,261.628 98.762 C 261.488 97.995,261.203 96.324,260.995 95.046 C 260.082 89.455,258.166 83.795,255.152 77.784 C 253.182 73.855,252.766 73.108,252.196 72.477 C 251.925 72.178,251.703 71.838,251.703 71.722 C 251.703 70.330,241.682 59.478,238.242 57.145 C 237.565 56.685,236.938 56.213,236.849 56.095 C 236.760 55.977,236.130 55.522,235.449 55.084 C 234.768 54.645,233.653 53.926,232.972 53.485 C 231.435 52.489,228.585 50.887,227.554 50.440 C 227.128 50.255,226.293 49.854,225.697 49.549 C 225.101 49.244,224.160 48.896,223.607 48.776 C 223.053 48.656,222.601 48.443,222.601 48.303 C 222.601 48.164,221.869 47.878,220.975 47.669 C 220.081 47.459,219.002 47.110,218.576 46.892 C 218.150 46.674,217.002 46.334,216.024 46.137 C 213.363 45.599,213.313 45.465,213.313 38.963 C 213.313 34.392,213.394 33.400,213.799 32.994 C 214.234 32.559,217.127 32.508,240.996 32.508 L 267.706 32.508 268.296 33.159 M349.684 33.229 C 350.105 33.872,350.156 46.998,350.156 154.802 L 350.156 275.655 349.482 276.372 L 348.808 277.090 335.937 277.086 C 328.857 277.083,322.769 277.002,322.406 276.905 C 321.087 276.551,321.053 276.057,321.034 256.719 C 321.024 246.553,320.889 237.539,320.733 236.687 C 320.578 235.836,320.234 233.746,319.969 232.043 C 319.704 230.341,319.301 228.460,319.072 227.864 C 318.844 227.268,318.557 226.095,318.435 225.258 C 318.313 224.421,318.030 223.445,317.806 223.091 C 317.582 222.736,317.296 221.958,317.172 221.362 C 317.047 220.766,316.685 219.793,316.367 219.200 C 316.050 218.606,315.789 217.937,315.789 217.713 C 315.789 217.489,315.521 216.790,315.193 216.160 C 314.865 215.531,314.145 214.040,313.594 212.848 C 313.044 211.656,312.511 210.611,312.411 210.526 C 312.311 210.441,311.980 209.884,311.675 209.288 C 308.867 203.802,302.609 196.226,296.174 190.522 L 294.737 189.249 294.737 111.477 C 294.737 58.459,294.839 33.515,295.057 33.107 C 295.370 32.522,296.000 32.508,322.295 32.508 L 349.212 32.508 349.684 33.229 M191.269 85.511 C 191.760 86.002,191.809 124.803,191.320 125.717 C 190.720 126.838,188.412 126.543,187.169 125.186 C 185.747 123.634,185.766 123.898,185.762 105.331 C 185.758 87.136,185.774 86.974,187.581 86.344 C 188.084 86.168,188.572 85.826,188.665 85.582 C 188.874 85.039,190.746 84.988,191.269 85.511 M211.260 85.608 C 211.518 85.866,212.171 86.165,212.711 86.273 C 214.826 86.696,214.846 86.879,214.854 105.692 C 214.860 121.837,214.714 124.768,213.899 124.768 C 213.764 124.768,213.271 125.123,212.803 125.557 C 212.129 126.181,211.691 126.326,210.697 126.253 L 209.443 126.161 209.363 105.902 C 209.281 85.060,209.276 85.159,210.427 85.144 C 210.627 85.141,211.003 85.350,211.260 85.608 M190.885 211.585 C 191.768 212.230,191.998 269.061,191.122 270.030 C 190.260 270.982,186.691 270.716,186.158 269.659 C 185.391 268.139,185.602 213.469,186.378 212.693 C 186.718 212.353,187.241 212.070,187.539 212.064 C 187.837 212.059,188.351 211.850,188.681 211.600 C 189.438 211.028,190.117 211.023,190.885 211.585 M212.802 212.058 C 214.997 212.809,214.878 211.034,214.788 241.647 C 214.694 273.709,215.020 270.588,211.767 270.588 C 209.068 270.588,209.288 273.208,209.288 241.062 C 209.288 210.017,209.255 210.655,210.816 211.334 C 211.083 211.450,211.976 211.776,212.802 212.058 M138.255 213.963 C 138.371 214.151,138.951 214.507,139.543 214.755 C 140.136 215.002,140.781 215.340,140.976 215.505 C 141.171 215.671,142.028 216.254,142.879 216.801 C 144.435 217.802,149.465 222.632,150.619 224.234 C 150.960 224.706,151.388 225.264,151.571 225.473 C 151.874 225.820,153.127 228.146,154.548 231.002 C 154.856 231.621,155.108 232.405,155.108 232.744 C 155.108 233.083,155.328 233.887,155.597 234.530 C 157.238 238.457,155.967 247.980,153.223 252.322 C 153.062 252.577,152.758 253.135,152.548 253.560 C 150.765 257.182,141.972 265.635,139.989 265.635 C 139.832 265.635,139.538 265.835,139.335 266.079 C 139.133 266.324,138.568 266.611,138.080 266.718 C 137.593 266.825,137.032 267.109,136.832 267.349 C 136.633 267.589,135.994 267.875,135.411 267.984 C 134.713 268.115,134.002 268.592,133.323 269.386 L 132.294 270.588 125.342 270.588 C 117.587 270.588,117.647 270.605,117.647 268.514 C 117.647 266.564,118.391 265.944,120.732 265.944 C 121.748 265.944,123.176 265.743,123.906 265.498 C 124.635 265.252,125.998 264.955,126.935 264.839 C 127.872 264.722,129.222 264.366,129.937 264.047 C 130.651 263.728,131.455 263.467,131.722 263.467 C 132.160 263.467,134.718 262.318,135.913 261.584 C 136.169 261.427,136.682 261.167,137.053 261.006 C 140.418 259.545,147.988 252.152,147.988 250.326 C 147.988 250.201,148.266 249.743,148.607 249.310 C 148.947 248.878,149.226 248.227,149.226 247.864 C 149.226 247.501,149.505 246.685,149.845 246.049 C 150.757 244.348,150.762 236.636,149.852 234.631 C 149.515 233.889,149.237 232.990,149.233 232.633 C 149.229 232.275,148.947 231.662,148.607 231.269 C 148.266 230.877,147.988 230.410,147.988 230.232 C 147.988 229.261,141.487 221.981,140.620 221.981 C 140.432 221.981,140.167 221.791,140.031 221.559 C 139.780 221.130,139.284 220.829,135.633 218.879 C 132.611 217.266,132.791 217.478,133.330 216.170 C 134.255 213.923,137.368 212.529,138.255 213.963 M265.784 214.125 C 266.331 214.672,267.645 217.297,267.455 217.464 C 267.390 217.520,266.390 218.064,265.232 218.674 C 263.115 219.787,259.689 222.002,258.824 222.815 C 258.568 223.055,257.863 223.697,257.257 224.242 C 255.898 225.462,253.583 228.382,253.223 229.329 C 253.077 229.715,252.814 230.031,252.639 230.031 C 252.465 230.031,252.322 230.210,252.322 230.430 C 252.322 230.649,252.049 231.364,251.715 232.019 C 249.216 236.921,249.662 245.669,252.656 250.464 C 252.815 250.720,253.119 251.271,253.330 251.690 C 253.759 252.538,254.115 252.962,256.452 255.418 C 258.560 257.632,259.979 258.829,261.818 259.943 C 262.640 260.441,263.591 261.021,263.932 261.231 C 264.272 261.442,264.899 261.764,265.325 261.947 C 265.751 262.131,266.614 262.547,267.244 262.874 C 267.874 263.200,268.613 263.467,268.886 263.467 C 269.160 263.467,269.968 263.729,270.683 264.049 C 271.397 264.370,272.762 264.725,273.716 264.840 C 274.670 264.955,276.120 265.250,276.939 265.496 C 277.757 265.743,279.143 265.944,280.018 265.944 C 282.039 265.944,282.353 266.281,282.353 268.450 C 282.353 270.699,282.746 270.588,274.732 270.588 L 268.091 270.588 267.451 269.504 C 266.940 268.638,266.477 268.323,265.140 267.934 C 264.220 267.667,263.467 267.319,263.467 267.161 C 263.467 267.002,263.292 266.873,263.078 266.873 C 260.749 266.873,252.228 259.811,249.304 255.458 C 248.001 253.517,246.141 249.900,246.135 249.293 C 246.132 249.074,245.909 248.558,245.639 248.146 C 244.453 246.335,244.388 235.546,245.546 232.855 C 245.867 232.110,246.131 231.344,246.131 231.153 C 246.132 230.807,247.333 228.349,248.474 226.356 C 250.633 222.585,258.947 214.873,260.866 214.863 C 261.053 214.862,261.527 214.582,261.920 214.241 C 262.816 213.464,265.055 213.397,265.784 214.125 " stroke="none" fill="#040404" fill-rule="evenodd"></path><path id="path2" d="M10.131 0.396 C 10.048 0.613,9.246 1.190,8.349 1.678 C 6.475 2.698,3.047 6.061,2.063 7.845 C 1.695 8.513,1.211 9.389,0.989 9.793 C 0.767 10.196,0.454 10.526,0.293 10.526 C 0.132 10.526,0.000 10.944,0.000 11.455 C 0.000 12.805,0.709 12.605,1.171 11.126 C 2.290 7.541,5.993 3.480,9.830 1.632 C 11.064 1.037,12.074 0.427,12.074 0.275 C 12.074 -0.156,10.301 -0.047,10.131 0.396 M388.545 0.275 C 388.545 0.427,389.586 1.045,390.858 1.649 C 393.705 3.001,396.894 6.071,398.393 8.901 C 399.435 10.869,400.000 11.332,400.000 10.217 C 400.000 9.876,399.864 9.598,399.697 9.598 C 399.530 9.598,399.092 9.005,398.724 8.282 C 397.736 6.340,393.774 2.402,391.946 1.546 C 391.097 1.148,390.402 0.638,390.402 0.411 C 390.402 0.161,390.040 0.000,389.474 0.000 C 388.963 0.000,388.545 0.124,388.545 0.275 M0.000 33.433 C 0.000 33.605,0.035 33.775,0.077 33.810 C 0.120 33.846,5.379 33.950,11.765 34.043 L 23.375 34.211 23.375 154.799 L 23.375 275.387 11.687 275.468 C 4.252 275.520,-0.000 275.661,-0.000 275.855 C 0.000 276.499,23.048 276.245,23.636 275.595 C 24.321 274.838,24.432 35.407,23.748 34.056 L 23.356 33.282 11.678 33.201 C 3.953 33.147,0.000 33.226,0.000 33.433 M52.271 33.335 C 51.987 33.410,51.673 33.686,51.573 33.947 C 51.203 34.911,51.368 275.293,51.738 275.739 C 52.234 276.336,77.773 276.366,78.267 275.770 C 78.482 275.511,78.635 268.963,78.722 256.343 C 78.845 238.604,78.898 237.056,79.514 233.627 C 80.208 229.758,81.645 223.719,82.061 222.918 C 82.196 222.658,82.513 221.819,82.765 221.053 C 86.106 210.889,92.308 201.303,101.113 192.689 L 105.263 188.628 105.263 111.364 C 105.263 41.537,105.216 34.053,104.777 33.613 C 104.312 33.149,53.981 32.882,52.271 33.335 M133.746 33.342 C 132.466 33.799,132.508 31.438,132.508 104.059 C 132.508 142.325,132.592 173.854,132.696 174.123 C 132.938 174.755,133.483 174.740,137.103 174.009 C 142.285 172.961,146.981 172.762,166.593 172.759 C 188.524 172.755,186.687 173.030,186.687 169.747 C 186.687 167.337,186.260 166.864,183.282 165.974 C 169.556 161.876,158.504 154.160,149.973 142.718 C 148.745 141.072,147.284 138.880,146.570 137.616 C 143.036 131.355,141.373 127.315,139.816 121.207 C 131.430 88.319,150.747 55.093,183.816 45.526 C 186.681 44.697,186.687 44.683,186.687 38.923 C 186.687 34.694,186.623 34.093,186.121 33.639 C 185.562 33.133,135.131 32.847,133.746 33.342 M215.170 33.342 C 214.081 33.731,213.932 34.423,213.932 39.089 C 213.932 44.893,213.758 44.611,218.191 45.988 C 221.427 46.993,223.726 47.872,227.245 49.449 C 237.989 54.267,247.633 63.386,255.167 75.851 C 266.223 94.143,264.657 123.913,251.726 141.268 C 241.975 154.356,232.102 161.415,216.977 166.113 C 213.974 167.046,213.943 167.086,213.936 170.039 C 213.929 172.907,212.206 172.694,236.687 172.855 C 250.226 172.944,258.730 173.120,259.907 173.335 C 260.929 173.522,262.985 173.912,264.476 174.203 C 266.243 174.548,267.293 174.627,267.490 174.429 C 267.955 173.964,267.929 34.117,267.464 33.557 C 267.105 33.125,216.362 32.916,215.170 33.342 M296.285 33.353 C 296.029 33.450,295.718 33.683,295.593 33.870 C 295.468 34.057,295.363 68.954,295.361 111.418 L 295.356 188.625 299.784 192.997 C 309.276 202.370,317.361 215.645,319.015 224.574 C 319.137 225.233,319.366 225.999,319.522 226.277 C 319.782 226.737,320.343 229.293,321.057 233.282 C 321.713 236.940,321.979 244.508,321.980 259.509 C 321.981 275.021,322.000 275.530,322.580 275.841 C 323.486 276.325,348.367 276.277,348.854 275.789 C 349.498 275.146,349.384 34.258,348.739 33.613 C 348.250 33.124,297.549 32.871,296.285 33.353 M377.477 33.446 C 377.094 33.600,376.780 33.905,376.780 34.123 C 376.634 128.179,376.844 275.401,377.124 275.738 C 377.561 276.265,400.000 276.376,400.000 275.851 C 400.000 275.651,396.153 275.540,389.087 275.537 C 383.084 275.534,377.998 275.421,377.783 275.284 C 377.379 275.028,377.166 34.993,377.569 34.342 C 377.672 34.175,382.406 34.056,388.873 34.056 C 398.981 34.056,401.063 33.911,399.510 33.315 C 398.728 33.015,378.246 33.137,377.477 33.446 M104.879 111.479 L 104.799 188.157 100.293 192.608 C 92.576 200.231,87.606 207.546,83.490 217.337 C 81.321 222.498,80.676 224.718,78.950 232.972 C 78.280 236.173,78.019 243.389,78.019 258.652 C 78.019 273.425,77.967 275.186,77.529 275.354 C 76.792 275.637,52.847 275.570,52.396 275.284 C 51.946 274.999,51.808 34.756,52.257 34.306 C 52.758 33.805,104.135 33.849,104.570 34.351 C 104.881 34.711,104.943 50.172,104.879 111.479 M267.488 103.830 C 267.485 146.109,267.370 173.398,267.195 173.675 C 266.952 174.060,266.687 174.073,265.508 173.757 C 264.740 173.552,262.881 173.244,261.378 173.074 C 259.874 172.903,257.900 172.623,256.989 172.450 C 255.979 172.259,247.687 172.136,235.731 172.136 C 213.413 172.136,214.551 172.261,214.551 169.813 C 214.551 167.698,214.859 167.453,219.372 165.987 C 234.769 160.986,249.204 149.013,255.976 135.627 C 256.198 135.188,256.512 134.621,256.675 134.365 C 257.425 133.187,259.887 126.954,260.649 124.303 C 263.003 116.111,263.993 106.543,263.154 100.090 C 262.417 94.428,261.532 89.925,260.690 87.546 C 260.344 86.572,260.062 85.548,260.062 85.272 C 260.062 84.996,259.860 84.401,259.614 83.949 C 259.368 83.497,258.595 81.803,257.897 80.186 C 256.552 77.070,253.834 72.187,252.296 70.124 C 251.788 69.443,251.028 68.364,250.607 67.728 C 248.748 64.915,241.403 57.621,238.139 55.346 C 237.341 54.790,236.618 54.264,236.533 54.178 C 236.079 53.719,234.002 52.278,233.380 51.991 C 232.986 51.809,231.966 51.259,231.115 50.770 C 228.110 49.043,221.979 46.378,220.067 45.968 C 219.502 45.847,218.901 45.660,218.732 45.552 C 218.562 45.444,217.587 45.077,216.564 44.737 L 214.706 44.118 214.621 39.441 C 214.554 35.777,214.627 34.687,214.960 34.412 C 215.478 33.981,266.496 33.746,267.105 34.171 C 267.413 34.386,267.491 48.665,267.488 103.830 M348.657 34.436 C 349.137 35.192,348.974 274.799,348.493 275.198 C 348.190 275.450,344.507 275.526,335.444 275.468 L 322.818 275.387 322.876 259.133 C 322.912 248.848,322.810 241.970,322.598 240.402 C 322.413 239.040,322.135 236.672,321.980 235.139 C 321.352 228.943,318.730 220.357,315.454 213.777 C 310.025 202.869,307.325 199.287,297.398 189.823 L 295.978 188.469 295.899 111.650 C 295.825 38.909,295.849 34.805,296.361 34.365 C 297.105 33.725,348.249 33.794,348.657 34.436 M185.839 34.288 C 186.137 34.880,185.670 44.324,185.338 44.421 C 178.958 46.281,171.775 49.297,167.647 51.850 C 166.966 52.271,165.991 52.847,165.480 53.131 C 158.487 57.011,147.297 70.056,143.201 79.102 C 142.584 80.464,141.951 81.858,141.794 82.198 C 140.616 84.749,139.009 90.170,138.352 93.808 C 137.248 99.929,137.164 100.782,137.171 105.882 C 137.180 112.996,138.819 122.203,141.028 127.554 C 141.485 128.661,142.109 130.193,142.416 130.960 C 142.722 131.726,143.405 133.119,143.932 134.056 C 144.460 134.992,145.105 136.176,145.365 136.687 C 148.053 141.959,155.506 150.997,159.752 154.133 C 160.348 154.574,161.324 155.326,161.920 155.806 C 162.515 156.285,163.143 156.778,163.313 156.899 C 163.483 157.021,164.172 157.539,164.843 158.050 C 166.340 159.189,166.708 159.394,171.871 161.969 C 177.665 164.857,178.362 165.150,182.198 166.304 C 186.210 167.510,186.699 168.214,185.861 171.571 C 185.742 172.048,184.158 172.091,165.699 172.116 C 145.364 172.143,143.652 172.221,137.152 173.415 C 136.215 173.587,134.926 173.803,134.288 173.894 L 133.127 174.059 133.127 104.238 C 133.127 48.671,133.206 34.385,133.514 34.261 C 134.142 34.007,185.711 34.034,185.839 34.288 M188.575 86.360 C 186.588 87.382,186.687 86.371,186.687 105.690 L 186.687 123.336 187.384 124.357 C 188.210 125.567,189.499 126.128,190.226 125.594 C 190.669 125.269,190.710 123.252,190.638 105.577 C 190.549 83.854,190.700 85.267,188.575 86.360 M210.095 86.558 C 209.729 87.512,209.883 125.239,210.254 125.610 C 210.658 126.014,211.167 125.863,212.771 124.864 L 213.932 124.141 213.932 106.357 C 213.932 86.524,214.014 87.294,211.821 86.547 C 210.127 85.970,210.321 85.968,210.095 86.558 M190.083 105.882 C 190.083 125.569,190.064 125.845,188.712 124.959 C 187.335 124.057,187.306 123.658,187.311 105.785 C 187.315 87.051,187.289 87.414,188.666 86.835 C 190.118 86.225,190.083 85.761,190.083 105.882 M212.747 87.509 C 213.283 87.995,213.313 88.975,213.310 106.008 L 213.308 123.994 212.088 124.690 C 211.417 125.074,210.791 125.387,210.697 125.387 C 210.603 125.387,210.526 116.749,210.526 106.192 L 210.526 86.997 211.353 86.997 C 211.808 86.997,212.435 87.227,212.747 87.509 M187.926 212.512 L 186.842 212.904 186.842 241.359 L 186.842 269.814 187.996 270.099 C 188.780 270.293,189.400 270.270,189.931 270.029 L 190.712 269.673 190.712 241.245 C 190.712 219.547,190.624 212.729,190.341 212.446 C 189.885 211.990,189.331 212.005,187.926 212.512 M210.050 212.771 C 209.969 212.984,209.938 225.906,209.982 241.486 L 210.062 269.814 211.216 270.099 C 212.000 270.293,212.620 270.270,213.151 270.029 L 213.932 269.673 213.932 241.330 L 213.932 212.988 213.138 212.686 C 212.020 212.261,210.225 212.310,210.050 212.771 M190.017 240.988 C 190.099 270.181,190.108 269.969,188.839 269.969 C 187.242 269.969,187.307 271.177,187.307 241.216 C 187.307 211.151,187.221 212.581,189.008 212.757 L 189.938 212.848 190.017 240.988 M212.616 212.889 L 213.313 213.075 213.313 241.331 L 213.313 269.587 212.588 269.726 C 212.189 269.802,211.562 269.753,211.195 269.617 L 210.526 269.370 210.526 241.238 C 210.526 225.766,210.619 213.013,210.733 212.900 C 210.987 212.646,211.695 212.642,212.616 212.889 M134.926 214.783 C 133.330 216.496,133.549 217.086,136.276 218.428 C 137.609 219.084,138.700 219.717,138.700 219.835 C 138.700 219.952,139.118 220.222,139.628 220.433 C 140.139 220.645,140.557 220.911,140.557 221.023 C 140.557 221.136,140.940 221.456,141.409 221.734 C 145.860 224.377,150.437 231.869,151.116 237.621 C 151.650 242.148,150.376 248.819,148.648 250.547 C 148.455 250.740,148.297 251.071,148.297 251.282 C 148.297 251.840,144.800 256.099,143.098 257.615 C 137.796 262.336,129.400 265.801,121.730 266.434 C 118.820 266.675,118.266 267.021,118.266 268.606 C 118.266 270.205,119.090 270.415,123.847 270.028 C 126.534 269.810,128.161 269.813,129.148 270.039 C 131.056 270.476,132.012 270.181,132.750 268.930 C 133.104 268.330,133.715 267.799,134.190 267.680 C 135.440 267.366,139.055 265.540,141.738 263.866 C 146.475 260.911,152.203 254.181,153.558 249.978 C 153.774 249.309,154.053 248.622,154.177 248.452 C 154.498 248.014,154.713 247.006,155.250 243.433 C 156.903 232.424,149.459 220.028,137.985 214.686 C 135.969 213.748,135.889 213.750,134.926 214.783 M261.829 215.117 C 240.105 226.359,239.608 252.865,260.894 265.061 C 262.805 266.157,265.545 267.458,266.381 267.668 C 266.808 267.775,267.434 268.332,267.773 268.906 C 268.521 270.174,269.486 270.459,271.615 270.040 C 272.611 269.844,274.218 269.822,275.851 269.982 C 281.643 270.549,282.551 270.194,281.822 267.647 C 281.558 266.725,281.536 266.717,278.317 266.360 C 275.047 265.998,270.795 265.046,268.956 264.264 C 268.406 264.031,267.330 263.586,266.563 263.276 C 258.923 260.188,253.038 254.219,250.260 246.739 C 248.362 241.629,249.563 232.554,252.652 228.672 C 257.160 223.006,259.802 220.712,264.629 218.274 C 266.715 217.221,266.943 216.522,265.674 215.064 C 264.633 213.869,264.232 213.874,261.829 215.117 M138.677 215.707 C 141.072 216.887,144.849 219.510,145.294 220.303 C 145.430 220.545,145.744 220.743,145.991 220.743 C 146.238 220.743,146.441 220.848,146.443 220.975 C 146.446 221.103,146.997 221.800,147.669 222.523 C 155.189 230.619,156.970 242.013,152.230 251.703 C 151.855 252.469,151.463 253.166,151.359 253.251 C 151.255 253.336,150.920 253.893,150.615 254.489 C 148.910 257.818,141.118 264.179,136.223 266.237 C 135.797 266.416,135.240 266.690,134.985 266.847 C 134.729 267.003,134.066 267.300,133.510 267.506 C 132.864 267.745,132.431 268.153,132.310 268.638 C 132.028 269.761,130.921 270.054,129.184 269.464 C 128.111 269.100,127.320 269.035,126.171 269.217 C 122.616 269.781,118.741 269.575,118.633 268.816 C 118.471 267.676,120.024 266.985,123.316 266.730 C 133.864 265.915,145.428 258.690,149.380 250.447 C 149.824 249.520,150.323 248.515,150.487 248.215 C 153.223 243.206,151.982 233.679,147.790 227.515 C 145.982 224.857,140.946 220.124,139.926 220.124 C 139.752 220.124,139.533 219.926,139.440 219.683 C 139.347 219.441,138.736 219.029,138.083 218.768 C 137.429 218.506,136.812 218.158,136.710 217.994 C 136.609 217.829,136.115 217.605,135.614 217.495 C 134.371 217.221,134.106 216.260,135.009 215.299 C 135.909 214.341,135.903 214.340,138.677 215.707 M265.944 216.536 C 265.944 217.089,265.679 217.319,264.706 217.610 C 264.025 217.815,263.467 218.106,263.467 218.258 C 263.467 218.410,263.156 218.633,262.775 218.754 C 258.384 220.147,251.791 227.737,249.616 233.901 C 247.721 239.270,249.284 249.328,252.515 252.559 C 252.749 252.793,252.941 253.093,252.941 253.225 C 252.941 253.974,257.123 258.047,260.526 260.612 C 260.894 260.889,263.653 262.555,264.590 263.066 C 265.481 263.552,269.733 265.156,271.816 265.793 C 273.062 266.174,278.515 266.970,281.311 267.180 C 281.495 267.193,281.643 268.548,281.514 269.040 C 281.318 269.790,277.904 269.916,274.854 269.286 C 273.400 268.986,272.849 268.992,272.049 269.317 C 269.943 270.173,269.733 270.134,268.317 268.613 C 267.566 267.807,266.706 267.183,266.348 267.183 C 265.997 267.183,265.540 266.977,265.332 266.726 C 265.124 266.476,264.478 266.181,263.897 266.072 C 263.317 265.963,262.764 265.749,262.669 265.595 C 262.574 265.442,261.984 265.036,261.357 264.693 C 260.247 264.086,259.555 263.650,257.709 262.392 C 256.110 261.303,252.865 258.196,251.639 256.579 C 251.348 256.196,250.785 255.464,250.388 254.954 C 249.991 254.443,249.499 253.676,249.294 253.251 C 249.089 252.825,248.790 252.268,248.631 252.012 C 247.546 250.275,246.508 247.188,245.819 243.653 C 244.989 239.390,245.987 233.924,248.499 228.983 C 249.947 226.138,249.982 226.081,251.152 224.724 C 251.540 224.274,252.274 223.381,252.783 222.739 C 254.217 220.930,259.059 217.193,261.749 215.817 L 264.179 214.574 265.061 215.203 C 265.589 215.579,265.944 216.115,265.944 216.536 M0.000 297.833 C 0.000 298.344,0.143 298.762,0.317 298.762 C 0.492 298.762,0.754 299.075,0.899 299.458 C 2.020 302.404,5.763 306.424,8.900 308.050 C 10.050 308.646,11.037 309.238,11.094 309.365 C 11.252 309.720,12.693 309.642,12.693 309.278 C 12.693 309.103,12.450 308.883,12.152 308.791 C 7.287 307.283,2.493 302.484,0.819 297.446 C 0.529 296.573,0.000 296.823,0.000 297.833 M398.300 300.748 C 396.401 304.144,392.042 307.712,388.467 308.795 C 387.589 309.061,387.848 309.598,388.854 309.598 C 389.365 309.598,389.783 309.472,389.783 309.319 C 389.783 309.166,390.641 308.595,391.689 308.049 C 392.737 307.504,394.493 306.181,395.592 305.109 C 397.531 303.217,397.832 302.823,398.961 300.697 C 399.255 300.143,399.609 299.690,399.748 299.690 C 399.886 299.690,400.000 299.481,400.000 299.226 C 400.000 298.266,399.376 298.825,398.300 300.748 " stroke="none" fill="#848484" fill-rule="evenodd"></path><path id="path3" d="M12.384 0.464 C 12.384 0.720,12.239 0.929,12.061 0.929 C 8.759 0.929,0.929 9.015,0.929 12.425 C 0.929 12.743,0.720 13.003,0.464 13.003 C 0.140 13.003,0.000 13.330,0.000 14.087 C 0.000 16.309,1.226 14.696,1.692 11.860 C 1.810 11.146,2.104 10.398,2.346 10.197 C 2.588 9.996,2.786 9.660,2.786 9.451 C 2.786 8.890,5.693 5.149,6.580 4.568 C 7.000 4.293,7.542 3.884,7.785 3.659 C 8.408 3.083,11.364 1.678,12.926 1.218 C 14.459 0.765,14.703 0.000,13.313 0.000 C 12.693 0.000,12.384 0.155,12.384 0.464 M386.378 0.272 C 386.378 0.765,387.157 1.202,388.617 1.530 C 389.409 1.707,390.588 2.204,391.236 2.635 C 391.884 3.065,392.686 3.589,393.018 3.798 C 395.095 5.110,397.592 8.529,398.893 11.842 C 399.442 13.238,400.000 13.355,400.000 12.074 C 400.000 11.563,399.869 11.146,399.709 11.146 C 399.548 11.146,398.968 10.303,398.420 9.274 C 396.562 5.788,392.996 2.518,389.799 1.369 C 388.939 1.060,388.235 0.625,388.235 0.403 C 388.235 0.162,387.863 0.000,387.307 0.000 C 386.796 0.000,386.378 0.122,386.378 0.272 M-0.000 32.585 C 0.000 32.859,-0.700 32.846,12.450 32.818 C 22.552 32.796,22.908 32.815,23.518 33.425 L 24.149 34.056 24.149 154.751 C 24.149 271.285,24.129 275.463,23.582 275.958 C 23.077 276.416,21.782 276.471,11.508 276.471 C 4.042 276.471,0.000 276.579,0.000 276.780 C 0.000 277.521,23.436 277.164,24.137 276.412 L 24.768 275.735 24.768 154.634 C 24.768 38.963,24.743 33.510,24.217 33.034 C 23.628 32.501,-0.001 32.063,-0.000 32.585 M51.121 32.927 C 50.853 33.250,50.591 215.739,50.772 275.597 C 50.777 277.081,50.861 277.090,64.990 277.090 C 78.056 277.090,78.240 277.081,78.822 276.439 C 79.384 275.818,79.420 274.899,79.595 257.011 C 79.777 238.501,79.981 234.498,80.955 230.341 C 82.211 224.984,83.150 221.685,83.745 220.545 C 83.999 220.058,84.208 219.477,84.209 219.253 C 84.210 219.030,84.576 218.055,85.022 217.086 C 86.853 213.110,87.442 211.912,87.637 211.765 C 87.750 211.680,87.950 211.262,88.081 210.836 C 88.213 210.410,88.580 209.730,88.897 209.324 C 89.214 208.917,89.474 208.455,89.474 208.297 C 89.474 208.138,89.822 207.552,90.248 206.993 C 90.673 206.435,91.022 205.864,91.022 205.724 C 91.022 205.584,91.228 205.249,91.480 204.980 C 91.732 204.710,92.864 203.235,93.995 201.703 C 95.126 200.170,96.556 198.371,97.174 197.705 C 99.278 195.436,104.443 190.402,104.668 190.402 C 104.791 190.402,105.185 189.907,105.542 189.301 L 106.192 188.200 106.192 110.973 C 106.192 34.159,106.189 33.743,105.573 33.127 C 104.771 32.325,51.782 32.131,51.121 32.927 M132.468 33.020 C 132.111 33.450,132.031 44.785,131.964 103.814 C 131.876 181.288,131.745 175.861,133.696 175.415 C 134.149 175.311,135.850 175.026,137.475 174.782 C 139.100 174.537,140.842 174.169,141.345 173.965 C 142.017 173.692,148.152 173.558,164.396 173.462 C 189.849 173.311,187.401 173.681,187.570 169.960 C 187.712 166.827,187.000 165.967,183.633 165.201 C 182.474 164.937,181.119 164.510,180.623 164.251 C 180.127 163.993,179.512 163.776,179.257 163.769 C 179.002 163.763,178.096 163.415,177.245 162.996 C 176.393 162.577,175.557 162.231,175.387 162.227 C 175.029 162.219,170.258 159.839,168.885 158.985 C 168.375 158.666,167.211 157.908,166.299 157.299 C 165.387 156.690,164.354 156.028,164.002 155.828 C 163.650 155.627,163.240 155.244,163.090 154.976 C 162.940 154.708,162.681 154.489,162.515 154.489 C 161.935 154.489,154.380 147.214,152.386 144.737 C 149.259 140.850,145.602 134.903,144.295 131.579 C 144.128 131.153,143.628 129.969,143.184 128.947 C 142.740 127.926,142.170 126.393,141.917 125.542 C 141.665 124.690,141.328 123.715,141.168 123.375 C 141.009 123.034,140.738 121.920,140.566 120.898 C 140.394 119.876,140.062 118.344,139.829 117.492 C 138.601 113.015,138.661 95.885,139.912 93.546 C 140.068 93.256,140.358 92.116,140.557 91.014 C 141.238 87.235,144.370 79.288,146.838 75.077 C 147.869 73.320,149.089 71.327,149.303 71.053 C 149.436 70.882,150.257 69.768,151.127 68.576 C 152.939 66.094,152.778 66.279,155.986 63.003 C 159.305 59.614,160.482 58.559,163.003 56.708 C 164.195 55.833,165.310 55.003,165.480 54.863 C 166.008 54.430,170.590 51.689,171.305 51.379 C 171.677 51.217,172.190 50.959,172.446 50.806 C 173.512 50.165,176.245 48.916,176.581 48.916 C 176.781 48.916,177.430 48.656,178.023 48.338 C 178.617 48.021,179.590 47.656,180.186 47.529 C 180.782 47.401,181.419 47.177,181.603 47.030 C 181.786 46.882,182.885 46.563,184.045 46.320 C 187.551 45.585,187.676 45.316,187.558 38.759 C 187.470 33.860,187.408 33.347,186.860 32.947 C 185.873 32.226,133.068 32.297,132.468 33.020 M213.799 32.994 C 213.394 33.400,213.313 34.392,213.313 38.963 C 213.313 45.465,213.363 45.599,216.024 46.137 C 217.002 46.334,218.150 46.674,218.576 46.892 C 219.002 47.110,220.081 47.459,220.975 47.669 C 221.869 47.878,222.601 48.164,222.601 48.303 C 222.601 48.443,223.053 48.656,223.607 48.776 C 224.160 48.896,225.101 49.244,225.697 49.549 C 226.293 49.854,227.128 50.255,227.554 50.440 C 228.585 50.887,231.435 52.489,232.972 53.485 C 233.653 53.926,234.768 54.645,235.449 55.084 C 236.130 55.522,236.760 55.977,236.849 56.095 C 236.938 56.213,237.565 56.685,238.242 57.145 C 239.940 58.297,243.058 61.229,246.313 64.735 C 247.759 66.293,251.703 71.405,251.703 71.722 C 251.703 71.838,251.925 72.178,252.196 72.477 C 252.766 73.108,253.182 73.855,255.152 77.784 C 258.166 83.795,260.082 89.455,260.995 95.046 C 261.203 96.324,261.488 97.995,261.628 98.762 C 262.158 101.660,261.955 111.398,261.300 114.551 C 260.964 116.169,260.687 117.875,260.685 118.342 C 260.683 118.810,260.415 119.994,260.089 120.974 C 259.763 121.954,259.402 123.313,259.287 123.994 C 259.172 124.675,258.969 125.372,258.836 125.542 C 258.703 125.712,258.426 126.409,258.219 127.090 C 258.012 127.771,257.586 128.885,257.270 129.567 C 255.236 133.962,254.360 135.708,253.695 136.688 C 253.280 137.299,252.941 137.903,252.941 138.031 C 252.941 138.159,252.733 138.536,252.478 138.869 C 252.224 139.202,251.325 140.449,250.481 141.641 C 249.637 142.833,248.781 143.998,248.578 144.230 C 248.374 144.461,247.766 145.228,247.225 145.932 C 245.428 148.273,241.357 152.139,237.459 155.206 C 237.049 155.529,233.771 157.679,232.043 158.759 C 231.703 158.971,230.981 159.350,230.439 159.599 C 229.897 159.848,229.373 160.184,229.274 160.344 C 229.175 160.505,228.573 160.803,227.937 161.007 C 227.301 161.211,226.571 161.559,226.316 161.780 C 226.060 162.000,225.433 162.283,224.923 162.407 C 224.412 162.532,223.508 162.891,222.915 163.205 C 222.321 163.520,221.625 163.782,221.367 163.788 C 221.109 163.793,220.341 164.067,219.659 164.396 C 218.978 164.725,218.128 164.999,217.771 165.005 C 214.655 165.055,213.313 166.445,213.313 169.621 C 213.313 173.754,210.671 173.309,236.223 173.478 C 254.785 173.600,258.588 173.698,259.779 174.088 C 260.560 174.344,262.162 174.653,263.339 174.776 C 264.517 174.899,265.732 175.131,266.040 175.291 C 266.956 175.769,268.321 175.293,268.704 174.363 C 269.407 172.656,269.006 33.945,268.296 33.159 L 267.706 32.508 240.996 32.508 C 217.127 32.508,214.234 32.559,213.799 32.994 M295.057 33.107 C 294.839 33.515,294.737 58.459,294.737 111.477 L 294.737 189.249 296.174 190.522 C 302.609 196.226,308.867 203.802,311.675 209.288 C 311.980 209.884,312.311 210.441,312.411 210.526 C 312.511 210.611,313.044 211.656,313.594 212.848 C 314.145 214.040,314.865 215.531,315.193 216.160 C 315.521 216.790,315.789 217.489,315.789 217.713 C 315.789 217.937,316.050 218.606,316.367 219.200 C 316.685 219.793,317.047 220.766,317.172 221.362 C 317.296 221.958,317.582 222.736,317.806 223.091 C 318.030 223.445,318.313 224.421,318.435 225.258 C 318.557 226.095,318.844 227.268,319.072 227.864 C 319.301 228.460,319.704 230.341,319.969 232.043 C 320.234 233.746,320.578 235.836,320.733 236.687 C 320.889 237.539,321.024 246.553,321.034 256.719 C 321.053 276.057,321.087 276.551,322.406 276.905 C 322.769 277.002,328.857 277.083,335.937 277.086 L 348.808 277.090 349.482 276.372 L 350.156 275.655 350.156 154.802 C 350.156 46.998,350.105 33.872,349.684 33.229 L 349.212 32.508 322.295 32.508 C 296.000 32.508,295.370 32.522,295.057 33.107 M376.322 33.229 C 375.489 34.501,375.772 276.040,376.607 276.650 C 377.333 277.181,400.000 277.318,400.000 276.791 C 400.000 276.606,395.632 276.459,388.533 276.404 C 378.744 276.329,377.024 276.248,376.773 275.851 C 376.243 275.011,376.379 34.299,376.911 33.573 C 377.332 32.997,377.822 32.972,388.675 32.972 C 394.904 32.972,400.000 32.868,400.000 32.740 C 400.000 32.612,394.779 32.508,388.397 32.508 L 376.794 32.508 376.322 33.229 M104.825 33.466 C 105.428 34.131,105.982 182.364,105.401 187.300 C 105.203 188.979,105.164 189.032,101.788 192.254 C 94.880 198.847,89.716 205.808,86.168 213.313 C 84.285 217.295,83.901 218.156,83.901 218.395 C 83.901 218.528,83.699 219.076,83.453 219.613 C 79.876 227.396,78.947 235.160,78.947 257.293 C 78.947 274.819,78.933 275.246,78.328 275.851 C 77.477 276.702,52.971 276.829,51.772 275.989 L 51.084 275.507 51.084 154.840 C 51.084 58.779,51.163 34.073,51.471 33.677 C 52.083 32.890,51.809 32.898,78.664 32.854 L 104.233 32.811 104.825 33.466 M186.222 33.436 C 186.767 34.038,186.849 35.832,186.700 43.879 C 186.687 44.587,184.801 45.820,183.731 45.820 C 182.631 45.820,177.327 47.852,173.220 49.846 C 134.511 68.640,126.066 119.766,156.651 150.155 C 160.395 153.875,166.003 158.146,169.703 160.096 C 172.610 161.628,177.871 164.087,178.241 164.087 C 178.368 164.087,179.170 164.352,180.025 164.676 C 180.880 165.000,182.583 165.571,183.811 165.945 C 186.553 166.780,186.776 167.038,186.889 169.496 C 186.961 171.091,186.860 171.608,186.346 172.261 L 185.714 173.065 165.380 173.068 C 144.649 173.070,142.044 173.183,136.424 174.327 C 134.081 174.803,133.274 174.864,132.940 174.587 C 132.570 174.279,132.518 163.921,132.584 103.918 L 132.663 33.610 133.437 33.218 C 134.952 32.451,185.520 32.660,186.222 33.436 M267.630 33.505 C 268.370 34.563,268.366 173.695,267.625 174.436 C 267.032 175.029,267.419 175.042,264.004 174.310 C 258.816 173.197,255.931 173.070,235.604 173.063 C 211.915 173.055,213.622 173.307,213.622 169.820 C 213.622 167.054,213.893 166.799,218.266 165.461 C 221.293 164.534,223.911 163.610,224.645 163.207 C 224.968 163.031,226.327 162.355,227.666 161.706 C 234.190 158.543,239.533 154.718,244.427 149.708 C 272.202 121.271,267.335 75.413,234.228 53.621 C 229.759 50.679,220.888 46.654,217.337 45.958 C 215.859 45.667,214.050 44.716,213.815 44.106 C 213.484 43.242,213.600 34.676,213.952 34.018 C 214.553 32.896,215.457 32.857,241.391 32.837 L 267.148 32.817 267.630 33.505 M348.923 33.443 C 349.776 34.296,349.906 274.566,349.054 275.783 L 348.572 276.471 335.810 276.471 C 324.986 276.471,322.948 276.400,322.387 276.008 C 321.727 275.545,321.726 275.523,321.570 255.806 C 321.483 244.950,321.277 235.372,321.110 234.520 C 320.003 228.852,318.404 222.380,317.974 221.827 C 317.841 221.657,317.633 221.104,317.512 220.599 C 317.391 220.094,317.024 219.092,316.696 218.371 C 316.368 217.651,316.099 216.993,316.099 216.908 C 316.099 216.824,315.330 215.179,314.391 213.253 C 310.390 205.055,305.974 199.096,298.802 192.218 L 295.046 188.616 295.046 111.666 C 295.046 32.331,295.031 33.291,296.346 33.037 C 299.210 32.483,348.343 32.863,348.923 33.443 M188.665 85.582 C 188.572 85.826,188.084 86.168,187.581 86.344 C 185.774 86.974,185.758 87.136,185.762 105.331 C 185.766 123.898,185.747 123.634,187.169 125.186 C 188.412 126.543,190.720 126.838,191.320 125.717 C 191.809 124.803,191.760 86.002,191.269 85.511 C 190.746 84.988,188.874 85.039,188.665 85.582 M209.673 85.396 C 209.365 85.591,209.300 89.900,209.363 105.902 L 209.443 126.161 210.697 126.253 C 211.691 126.326,212.129 126.181,212.803 125.557 C 213.271 125.123,213.764 124.768,213.899 124.768 C 214.714 124.768,214.860 121.837,214.854 105.692 C 214.846 86.879,214.826 86.696,212.711 86.273 C 212.171 86.165,211.518 85.866,211.260 85.608 C 210.740 85.088,210.259 85.024,209.673 85.396 M190.737 85.759 C 190.907 85.759,191.022 93.749,191.022 105.579 L 191.022 125.400 190.219 125.766 C 189.198 126.231,188.089 125.668,187.081 124.172 L 186.378 123.128 186.378 105.821 C 186.378 87.021,186.386 86.930,188.073 86.507 C 188.489 86.402,188.996 86.115,189.201 85.869 C 189.406 85.622,189.771 85.497,190.013 85.590 C 190.255 85.683,190.581 85.759,190.737 85.759 M210.969 86.033 C 211.062 86.184,211.608 86.396,212.181 86.503 C 214.283 86.897,214.272 86.783,214.174 106.437 L 214.087 123.864 212.848 124.924 C 211.556 126.029,210.600 126.265,209.969 125.635 C 209.496 125.162,209.429 87.789,209.899 86.553 C 210.205 85.750,210.658 85.530,210.969 86.033 M188.681 211.600 C 188.351 211.850,187.837 212.059,187.539 212.064 C 187.241 212.070,186.718 212.353,186.378 212.693 C 185.602 213.469,185.391 268.139,186.158 269.659 C 186.691 270.716,190.260 270.982,191.122 270.030 C 191.998 269.061,191.768 212.230,190.885 211.585 C 190.117 211.023,189.438 211.028,188.681 211.600 M209.810 211.701 C 209.137 212.445,208.990 269.547,209.659 270.217 C 210.179 270.737,213.367 270.688,214.105 270.149 C 214.771 269.662,215.239 214.243,214.587 213.078 C 214.431 212.800,213.628 212.341,212.802 212.058 C 211.976 211.776,211.083 211.450,210.816 211.334 C 210.523 211.207,210.126 211.351,209.810 211.701 M190.721 212.710 C 190.909 213.062,191.022 223.737,191.022 241.289 C 191.022 272.721,191.217 270.279,188.700 270.279 C 186.174 270.279,186.365 272.762,186.453 241.075 L 186.533 212.848 188.065 212.340 C 189.742 211.784,190.264 211.857,190.721 212.710 M213.510 212.598 C 214.249 212.881,214.262 213.481,214.173 241.884 C 214.077 272.787,214.277 270.269,211.920 270.269 C 209.561 270.269,209.762 272.832,209.669 241.489 C 209.609 221.285,209.682 213.114,209.928 212.654 C 210.264 212.026,211.951 212.000,213.510 212.598 M134.449 214.319 C 134.095 214.702,133.592 215.535,133.330 216.170 C 132.791 217.478,132.611 217.266,135.633 218.879 C 139.284 220.829,139.780 221.130,140.031 221.559 C 140.167 221.791,140.432 221.981,140.620 221.981 C 141.487 221.981,147.988 229.261,147.988 230.232 C 147.988 230.410,148.266 230.877,148.607 231.269 C 148.947 231.662,149.229 232.275,149.233 232.633 C 149.237 232.990,149.515 233.889,149.852 234.631 C 150.762 236.636,150.757 244.348,149.845 246.049 C 149.505 246.685,149.226 247.501,149.226 247.864 C 149.226 248.227,148.947 248.878,148.607 249.310 C 148.266 249.743,147.988 250.201,147.988 250.326 C 147.988 252.152,140.418 259.545,137.053 261.006 C 136.682 261.167,136.169 261.427,135.913 261.584 C 134.718 262.318,132.160 263.467,131.722 263.467 C 131.455 263.467,130.651 263.728,129.937 264.047 C 129.222 264.366,127.872 264.722,126.935 264.839 C 125.998 264.955,124.635 265.252,123.906 265.498 C 123.176 265.743,121.748 265.944,120.732 265.944 C 118.391 265.944,117.647 266.564,117.647 268.514 C 117.647 270.605,117.587 270.588,125.342 270.588 L 132.294 270.588 133.323 269.386 C 134.002 268.592,134.713 268.115,135.411 267.984 C 135.994 267.875,136.633 267.589,136.832 267.349 C 137.032 267.109,137.593 266.825,138.080 266.718 C 138.568 266.611,139.133 266.324,139.335 266.079 C 139.538 265.835,139.832 265.635,139.989 265.635 C 141.972 265.635,150.765 257.182,152.548 253.560 C 152.758 253.135,153.062 252.577,153.223 252.322 C 155.967 247.980,157.238 238.457,155.597 234.530 C 155.328 233.887,155.108 233.083,155.108 232.744 C 155.108 232.405,154.856 231.621,154.548 231.002 C 153.127 228.146,151.874 225.820,151.571 225.473 C 151.388 225.264,150.960 224.706,150.619 224.234 C 149.465 222.632,144.435 217.802,142.879 216.801 C 142.028 216.254,141.171 215.671,140.976 215.505 C 140.781 215.340,140.136 215.002,139.543 214.755 C 138.951 214.507,138.371 214.151,138.255 213.963 C 137.848 213.305,135.153 213.556,134.449 214.319 M261.920 214.241 C 261.527 214.582,261.053 214.862,260.866 214.863 C 258.947 214.873,250.633 222.585,248.474 226.356 C 247.333 228.349,246.132 230.807,246.131 231.153 C 246.131 231.344,245.867 232.110,245.546 232.855 C 244.388 235.546,244.453 246.335,245.639 248.146 C 245.909 248.558,246.132 249.074,246.135 249.293 C 246.141 249.900,248.001 253.517,249.304 255.458 C 252.228 259.811,260.749 266.873,263.078 266.873 C 263.292 266.873,263.467 267.002,263.467 267.161 C 263.467 267.319,264.220 267.667,265.140 267.934 C 266.477 268.323,266.940 268.638,267.451 269.504 L 268.091 270.588 274.732 270.588 C 282.746 270.588,282.353 270.699,282.353 268.450 C 282.353 266.281,282.039 265.944,280.018 265.944 C 279.143 265.944,277.757 265.743,276.939 265.496 C 276.120 265.250,274.670 264.955,273.716 264.840 C 272.762 264.725,271.397 264.370,270.683 264.049 C 269.968 263.729,269.160 263.467,268.886 263.467 C 268.613 263.467,267.874 263.200,267.244 262.874 C 266.614 262.547,265.751 262.131,265.325 261.947 C 264.899 261.764,264.272 261.442,263.932 261.231 C 263.591 261.021,262.640 260.441,261.818 259.943 C 259.979 258.829,258.560 257.632,256.452 255.418 C 254.115 252.962,253.759 252.538,253.330 251.690 C 253.119 251.271,252.815 250.720,252.656 250.464 C 249.662 245.669,249.216 236.921,251.715 232.019 C 252.049 231.364,252.322 230.649,252.322 230.430 C 252.322 230.210,252.465 230.031,252.639 230.031 C 252.814 230.031,253.077 229.715,253.223 229.329 C 253.583 228.382,255.898 225.462,257.257 224.242 C 257.863 223.697,258.568 223.055,258.824 222.815 C 259.689 222.002,263.115 219.787,265.232 218.674 C 266.390 218.064,267.390 217.520,267.455 217.464 C 267.645 217.297,266.331 214.672,265.784 214.125 C 265.055 213.397,262.816 213.464,261.920 214.241 M139.274 215.182 C 144.462 218.010,152.322 225.578,152.322 227.745 C 152.322 227.869,152.505 228.190,152.729 228.459 C 154.991 231.177,156.258 239.434,155.256 244.935 C 153.536 254.387,144.290 264.577,134.505 267.807 C 133.792 268.042,133.158 268.548,132.786 269.179 L 132.197 270.178 125.309 270.151 L 118.421 270.124 118.325 268.610 C 118.199 266.625,118.277 266.573,121.920 266.230 C 136.497 264.859,149.074 255.273,150.808 244.213 C 151.309 241.018,150.971 235.739,150.133 233.665 C 149.773 232.773,149.350 231.720,149.194 231.326 C 147.486 227.003,141.667 221.332,135.953 218.420 C 133.430 217.134,133.181 216.508,134.548 214.884 C 135.621 213.609,136.489 213.664,139.274 215.182 M265.289 214.437 C 265.894 214.861,266.873 216.561,266.873 217.189 C 266.873 217.288,266.420 217.581,265.867 217.839 C 248.253 226.066,244.058 244.592,257.038 256.836 C 262.585 262.069,270.848 265.649,278.583 266.170 C 281.696 266.380,282.111 266.688,281.981 268.691 L 281.889 270.124 275.542 270.164 C 268.112 270.212,268.337 270.248,267.525 268.872 C 267.178 268.283,266.644 267.802,266.339 267.802 C 265.524 267.802,260.642 265.239,258.073 263.463 C 252.751 259.784,247.194 252.635,246.286 248.297 C 246.161 247.701,245.925 247.048,245.762 246.845 C 243.901 244.531,245.216 233.717,248.022 228.262 C 251.686 221.139,262.498 212.482,265.289 214.437 M-0.000 295.168 C -0.000 295.772,0.180 296.288,0.425 296.382 C 0.658 296.471,0.945 296.939,1.061 297.421 C 2.132 301.847,9.087 308.669,12.529 308.669 C 12.800 308.669,13.103 308.878,13.201 309.133 C 13.393 309.634,15.480 309.806,15.480 309.322 C 15.480 308.989,13.221 308.050,12.421 308.050 C 9.006 308.050,2.278 301.115,1.458 296.749 C 0.992 294.267,0.000 293.192,-0.000 295.168 M398.722 298.065 C 396.913 302.330,394.301 305.189,390.309 307.273 C 389.491 307.700,388.516 308.060,388.142 308.073 C 387.133 308.108,385.349 308.813,385.210 309.232 C 385.032 309.764,387.199 309.706,387.403 309.173 C 387.493 308.939,387.960 308.653,388.442 308.536 C 392.118 307.643,396.212 304.197,398.309 300.232 C 398.917 299.083,399.546 298.142,399.707 298.142 C 399.868 298.142,400.000 297.794,400.000 297.368 C 400.000 296.139,399.400 296.466,398.722 298.065 " stroke="none" fill="#585858" fill-rule="evenodd"></path><path id="path4" d="M391.950 2.253 C 391.950 2.312,392.403 2.692,392.957 3.097 C 393.579 3.553,393.796 3.627,393.524 3.293 C 393.112 2.785,391.950 2.018,391.950 2.253 M4.954 5.108 C 4.202 5.875,3.656 6.502,3.741 6.502 C 3.826 6.502,4.511 5.875,5.263 5.108 C 6.015 4.342,6.561 3.715,6.476 3.715 C 6.391 3.715,5.706 4.342,4.954 5.108 M395.201 4.954 C 395.866 5.635,396.480 6.192,396.565 6.192 C 396.650 6.192,396.176 5.635,395.511 4.954 C 394.846 4.272,394.232 3.715,394.147 3.715 C 394.062 3.715,394.536 4.272,395.201 4.954 M0.000 12.693 C 0.000 12.864,0.209 13.003,0.464 13.003 C 0.720 13.003,0.929 12.864,0.929 12.693 C 0.929 12.523,0.720 12.384,0.464 12.384 C 0.209 12.384,0.000 12.523,0.000 12.693 M0.387 33.031 C 0.685 33.109,1.173 33.109,1.471 33.031 C 1.769 32.953,1.525 32.889,0.929 32.889 C 0.333 32.889,0.089 32.953,0.387 33.031 M7.508 33.049 C 10.360 33.100,15.027 33.100,17.879 33.049 C 20.731 32.998,18.398 32.956,12.693 32.956 C 6.989 32.956,4.656 32.998,7.508 33.049 M63.622 33.044 C 87.077 33.258,104.572 33.260,104.441 33.050 C 104.362 32.922,93.126 32.850,79.471 32.890 C 65.816 32.930,58.684 32.999,63.622 33.044 M133.461 33.209 C 133.049 33.419,132.650 33.800,132.574 34.056 C 132.494 34.327,132.635 34.262,132.912 33.901 C 133.613 32.986,185.116 32.757,186.193 33.664 L 186.842 34.211 186.252 33.514 L 185.663 32.817 159.937 32.822 C 140.138 32.825,134.038 32.915,133.461 33.209 M214.958 33.129 C 213.551 33.696,212.857 42.889,214.104 44.445 C 214.569 45.026,214.574 45.023,214.259 44.370 C 213.740 43.296,213.833 34.619,214.371 33.883 C 214.929 33.119,266.490 32.756,267.454 33.509 C 267.901 33.857,267.910 33.841,267.532 33.359 C 267.060 32.758,216.429 32.536,214.958 33.129 M308.901 33.049 C 315.584 33.096,326.521 33.096,333.204 33.049 C 339.888 33.003,334.420 32.965,321.053 32.965 C 307.686 32.965,302.217 33.003,308.901 33.049 M346.962 33.100 C 347.846 33.207,348.682 33.408,348.820 33.547 C 348.958 33.685,349.141 88.155,349.227 154.592 L 349.382 275.387 349.459 154.721 C 349.535 34.417,349.534 34.054,348.916 33.437 C 348.454 32.974,347.925 32.828,346.827 32.861 L 345.356 32.905 346.962 33.100 M383.050 33.049 C 385.731 33.100,390.120 33.100,392.802 33.049 C 395.484 32.997,393.289 32.955,387.926 32.955 C 382.562 32.955,380.368 32.997,383.050 33.049 M51.379 33.773 C 51.189 34.128,51.102 34.487,51.185 34.570 C 51.268 34.653,51.426 34.441,51.534 34.099 C 51.643 33.757,51.969 33.414,52.259 33.338 C 52.753 33.208,52.752 33.196,52.255 33.163 C 51.963 33.143,51.569 33.418,51.379 33.773 M295.199 111.455 C 295.199 153.940,295.235 171.320,295.279 150.077 C 295.323 128.835,295.323 94.075,295.279 72.833 C 295.235 51.591,295.199 68.971,295.199 111.455 M105.416 110.991 C 105.416 153.050,105.451 170.209,105.495 149.124 C 105.539 128.038,105.539 93.626,105.495 72.653 C 105.451 51.680,105.415 68.932,105.416 110.991 M51.237 154.644 C 51.237 220.201,51.272 246.974,51.316 214.139 C 51.359 181.304,51.359 127.666,51.316 94.944 C 51.272 62.222,51.237 89.087,51.237 154.644 M376.624 154.489 C 376.624 219.791,376.659 246.505,376.703 213.854 C 376.746 181.204,376.746 127.775,376.703 95.124 C 376.659 62.473,376.624 89.187,376.624 154.489 M267.954 105.263 C 267.954 143.150,267.990 158.649,268.034 139.706 C 268.078 120.762,268.078 89.764,268.034 70.820 C 267.990 51.877,267.954 67.376,267.954 105.263 M227.270 49.651 C 227.589 49.936,229.412 50.774,229.412 50.635 C 229.412 50.457,227.695 49.536,227.363 49.536 C 227.241 49.536,227.199 49.588,227.270 49.651 M232.663 52.533 C 232.833 52.703,233.669 53.295,234.520 53.848 C 235.372 54.402,235.789 54.584,235.449 54.254 C 235.108 53.924,234.272 53.332,233.591 52.938 C 232.910 52.545,232.492 52.362,232.663 52.533 M165.944 53.603 C 164.510 54.583,163.521 55.433,164.396 54.935 C 165.983 54.030,167.890 52.581,167.415 52.641 C 167.372 52.647,166.711 53.079,165.944 53.603 M162.229 56.373 L 160.836 57.636 162.307 56.489 C 163.596 55.485,163.978 55.106,163.700 55.109 C 163.657 55.110,162.995 55.678,162.229 56.373 M236.842 55.211 C 236.842 55.296,237.399 55.807,238.080 56.347 C 238.762 56.886,239.319 57.258,239.319 57.173 C 239.319 57.088,238.762 56.577,238.080 56.037 C 237.399 55.498,236.842 55.126,236.842 55.211 M239.628 57.372 C 239.628 57.426,240.081 57.878,240.635 58.379 L 241.641 59.288 240.732 58.282 C 239.884 57.344,239.628 57.133,239.628 57.372 M241.796 59.218 C 241.796 59.265,242.875 60.345,244.195 61.618 L 246.594 63.932 244.280 61.533 C 242.131 59.304,241.796 58.992,241.796 59.218 M246.440 64.184 C 246.440 64.237,246.892 64.690,247.446 65.190 L 248.452 66.099 247.543 65.093 C 246.695 64.155,246.440 63.944,246.440 64.184 M152.012 66.254 C 151.300 67.105,150.786 67.802,150.871 67.802 C 150.956 67.802,151.609 67.105,152.322 66.254 C 153.035 65.402,153.548 64.706,153.463 64.706 C 153.378 64.706,152.725 65.402,152.012 66.254 M249.888 68.280 C 250.444 69.054,251.107 69.855,251.361 70.060 C 251.615 70.266,251.222 69.632,250.488 68.653 C 248.907 66.547,248.431 66.250,249.888 68.280 M254.730 75.664 C 255.359 76.765,255.920 77.620,255.976 77.564 C 256.114 77.425,254.188 74.036,253.853 73.829 C 253.706 73.738,254.100 74.564,254.730 75.664 M143.402 80.046 C 142.469 81.966,142.573 82.234,143.534 80.388 C 143.964 79.562,144.262 78.834,144.197 78.769 C 144.133 78.704,143.775 79.279,143.402 80.046 M190.557 105.698 C 190.557 116.665,190.662 125.573,190.789 125.494 C 190.917 125.415,191.022 116.442,191.022 105.554 C 191.022 94.667,190.917 85.759,190.789 85.759 C 190.662 85.759,190.557 94.731,190.557 105.698 M259.486 86.378 C 259.486 86.633,259.606 87.121,259.752 87.461 C 259.920 87.852,260.018 87.909,260.018 87.616 C 260.018 87.361,259.899 86.873,259.752 86.533 C 259.585 86.142,259.486 86.085,259.486 86.378 M209.673 106.077 C 209.602 124.079,209.632 125.338,210.139 125.736 C 210.619 126.112,210.637 126.104,210.296 125.668 C 210.002 125.290,209.893 120.703,209.830 106.008 L 209.748 86.842 209.673 106.077 M140.115 89.031 C 140.001 89.485,139.968 89.916,140.041 89.989 C 140.114 90.062,140.266 89.750,140.380 89.297 C 140.494 88.843,140.528 88.412,140.455 88.339 C 140.382 88.266,140.229 88.578,140.115 89.031 M186.523 105.728 C 186.523 115.433,186.562 119.359,186.610 114.452 C 186.658 109.544,186.658 101.603,186.610 96.805 C 186.562 92.006,186.523 96.022,186.523 105.728 M214.077 105.882 C 214.077 115.503,214.116 119.439,214.164 114.628 C 214.212 109.818,214.212 101.947,214.164 97.136 C 214.116 92.326,214.077 96.262,214.077 105.882 M138.854 94.427 C 138.736 95.131,138.703 95.772,138.783 95.852 C 138.862 95.931,139.020 95.415,139.133 94.706 C 139.247 93.996,139.279 93.355,139.205 93.281 C 139.131 93.208,138.973 93.723,138.854 94.427 M138.159 100.155 C 138.162 100.836,138.225 101.078,138.299 100.693 C 138.374 100.308,138.371 99.751,138.293 99.455 C 138.216 99.159,138.155 99.474,138.159 100.155 M262.325 100.774 C 262.327 101.796,262.385 102.176,262.453 101.620 C 262.522 101.063,262.521 100.227,262.450 99.762 C 262.380 99.297,262.323 99.752,262.325 100.774 M137.885 105.882 C 137.885 107.670,137.937 108.402,137.999 107.508 C 138.062 106.614,138.062 105.151,137.999 104.257 C 137.937 103.363,137.885 104.094,137.885 105.882 M262.643 105.882 C 262.643 107.159,262.697 107.682,262.764 107.043 C 262.831 106.405,262.831 105.360,262.764 104.721 C 262.697 104.083,262.643 104.605,262.643 105.882 M262.325 110.681 C 262.327 111.703,262.385 112.083,262.453 111.527 C 262.522 110.971,262.521 110.135,262.450 109.669 C 262.380 109.204,262.323 109.659,262.325 110.681 M138.159 111.610 C 138.162 112.291,138.225 112.533,138.299 112.148 C 138.374 111.763,138.371 111.206,138.293 110.910 C 138.216 110.614,138.155 110.929,138.159 111.610 M257.945 129.270 C 257.426 130.409,257.525 130.652,258.086 129.617 C 258.348 129.133,258.504 128.680,258.434 128.609 C 258.363 128.538,258.143 128.836,257.945 129.270 M143.366 131.424 C 143.366 131.594,143.565 132.082,143.808 132.508 C 144.051 132.933,144.251 133.142,144.251 132.972 C 144.251 132.802,144.051 132.314,143.808 131.889 C 143.565 131.463,143.366 131.254,143.366 131.424 M256.405 132.678 C 255.472 134.597,255.576 134.866,256.537 133.019 C 256.967 132.194,257.265 131.465,257.200 131.401 C 257.136 131.336,256.778 131.911,256.405 132.678 M144.737 134.365 C 145.001 134.876,145.287 135.294,145.372 135.294 C 145.457 135.294,145.311 134.876,145.046 134.365 C 144.782 133.854,144.496 133.437,144.411 133.437 C 144.326 133.437,144.473 133.854,144.737 134.365 M252.040 140.480 C 251.279 141.593,251.232 141.725,251.848 141.022 C 252.667 140.087,253.370 139.009,253.159 139.009 C 253.097 139.009,252.593 139.671,252.040 140.480 M148.607 140.867 C 148.971 141.378,149.338 141.796,149.423 141.796 C 149.508 141.796,149.280 141.378,148.916 140.867 C 148.553 140.356,148.185 139.938,148.100 139.938 C 148.015 139.938,148.243 140.356,148.607 140.867 M152.941 146.537 C 152.941 146.590,153.394 147.043,153.947 147.543 L 154.954 148.452 154.044 147.446 C 153.197 146.508,152.941 146.297,152.941 146.537 M159.133 152.786 C 159.711 153.382,160.253 153.870,160.338 153.870 C 160.423 153.870,160.020 153.382,159.443 152.786 C 158.865 152.190,158.323 151.703,158.238 151.703 C 158.153 151.703,158.555 152.190,159.133 152.786 M165.325 157.573 C 165.751 157.930,166.378 158.367,166.718 158.544 C 167.141 158.763,167.092 158.659,166.563 158.216 C 166.138 157.859,165.511 157.423,165.170 157.246 C 164.748 157.027,164.797 157.130,165.325 157.573 M178.947 164.551 C 179.373 164.794,179.861 164.994,180.031 164.994 C 180.201 164.994,179.992 164.794,179.567 164.551 C 179.141 164.308,178.653 164.109,178.483 164.109 C 178.313 164.109,178.522 164.308,178.947 164.551 M221.053 164.551 C 220.042 165.129,220.395 165.136,221.714 164.563 C 222.287 164.314,222.546 164.110,222.291 164.110 C 222.036 164.109,221.478 164.308,221.053 164.551 M213.718 169.814 C 213.720 170.836,213.778 171.217,213.847 170.660 C 213.916 170.104,213.914 169.268,213.844 168.803 C 213.773 168.337,213.716 168.793,213.718 169.814 M186.070 172.289 C 185.739 172.688,182.991 172.762,165.831 172.833 L 145.975 172.915 165.819 172.990 C 185.318 173.064,185.672 173.054,186.223 172.446 C 186.531 172.105,186.709 171.827,186.618 171.827 C 186.528 171.827,186.281 172.035,186.070 172.289 M214.121 172.268 C 214.421 173.052,215.555 173.090,235.449 172.996 L 254.644 172.905 234.976 172.830 C 217.808 172.765,215.221 172.695,214.624 172.276 C 214.019 171.853,213.961 171.852,214.121 172.268 M142.492 173.278 C 142.790 173.356,143.278 173.356,143.576 173.278 C 143.874 173.201,143.630 173.137,143.034 173.137 C 142.438 173.137,142.194 173.201,142.492 173.278 M257.043 173.278 C 257.341 173.356,257.829 173.356,258.127 173.278 C 258.425 173.201,258.181 173.137,257.585 173.137 C 256.989 173.137,256.745 173.201,257.043 173.278 M99.838 193.885 L 97.368 196.440 99.923 193.970 C 102.295 191.676,102.618 191.331,102.392 191.331 C 102.346 191.331,101.196 192.481,99.838 193.885 M298.452 191.726 C 298.452 191.773,299.532 192.853,300.851 194.125 L 303.251 196.440 300.937 194.040 C 298.787 191.812,298.452 191.500,298.452 191.726 M304.028 197.422 C 304.030 197.563,304.692 198.383,305.499 199.245 C 306.306 200.107,306.678 200.455,306.326 200.019 C 305.974 199.583,305.312 198.763,304.855 198.196 C 304.399 197.630,304.026 197.281,304.028 197.422 M210.097 212.328 C 210.010 212.467,210.350 212.521,210.852 212.448 C 211.354 212.374,211.765 212.260,211.765 212.194 C 211.765 211.958,210.250 212.080,210.097 212.328 M186.520 213.080 C 186.439 213.293,186.409 226.076,186.453 241.486 L 186.533 269.505 186.687 241.099 C 186.772 225.476,186.803 212.693,186.755 212.693 C 186.707 212.693,186.601 212.868,186.520 213.080 M190.860 241.176 C 190.860 256.757,190.898 263.131,190.944 255.341 C 190.990 247.550,190.990 234.803,190.944 227.012 C 190.898 219.222,190.860 225.596,190.860 241.176 M209.746 240.867 C 209.746 256.277,209.784 262.581,209.830 254.876 C 209.876 247.171,209.876 234.563,209.830 226.858 C 209.784 219.152,209.746 225.457,209.746 240.867 M214.080 241.176 C 214.080 256.587,214.118 262.891,214.164 255.186 C 214.210 247.481,214.210 234.872,214.164 227.167 C 214.118 219.462,214.080 225.766,214.080 241.176 M314.577 213.467 C 314.577 213.638,314.844 214.265,315.170 214.861 C 315.497 215.457,315.764 215.805,315.764 215.635 C 315.764 215.464,315.497 214.837,315.170 214.241 C 314.844 213.646,314.577 213.297,314.577 213.467 M266.354 216.624 C 266.384 217.169,266.517 217.506,266.650 217.373 C 266.783 217.241,266.759 216.796,266.596 216.384 C 266.318 215.681,266.303 215.695,266.354 216.624 M146.749 220.898 C 147.674 221.834,148.501 222.601,148.586 222.601 C 148.671 222.601,147.984 221.834,147.059 220.898 C 146.134 219.961,145.308 219.195,145.222 219.195 C 145.137 219.195,145.824 219.961,146.749 220.898 M252.457 222.059 L 251.548 223.065 252.554 222.156 C 253.108 221.656,253.560 221.203,253.560 221.150 C 253.560 220.910,253.305 221.121,252.457 222.059 M153.582 230.805 C 153.582 230.975,153.781 231.463,154.025 231.889 C 154.268 232.314,154.467 232.523,154.467 232.353 C 154.467 232.183,154.268 231.695,154.025 231.269 C 153.781 230.844,153.582 230.635,153.582 230.805 M320.460 231.579 C 320.469 231.834,320.597 232.322,320.743 232.663 L 321.009 233.282 321.026 232.663 C 321.035 232.322,320.908 231.834,320.743 231.579 C 320.476 231.166,320.445 231.166,320.460 231.579 M155.163 236.378 C 155.152 236.718,155.259 237.554,155.400 238.235 C 155.616 239.277,155.656 239.326,155.655 238.545 C 155.654 237.460,155.192 235.426,155.163 236.378 M79.019 237.461 C 79.019 238.057,79.083 238.301,79.161 238.003 C 79.239 237.705,79.239 237.217,79.161 236.920 C 79.083 236.622,79.019 236.865,79.019 237.461 M321.451 238.545 C 321.453 239.396,321.513 239.708,321.584 239.237 C 321.656 238.767,321.654 238.070,321.580 237.689 C 321.507 237.308,321.448 237.693,321.451 238.545 M249.338 240.248 C 249.338 241.865,249.390 242.527,249.454 241.718 C 249.517 240.909,249.517 239.586,249.454 238.777 C 249.390 237.968,249.338 238.630,249.338 240.248 M151.180 240.402 C 151.181 241.424,151.239 241.805,151.308 241.248 C 151.377 240.692,151.375 239.856,151.305 239.391 C 151.234 238.926,151.178 239.381,151.180 240.402 M244.980 240.402 C 244.983 241.254,245.043 241.565,245.114 241.095 C 245.185 240.624,245.183 239.928,245.110 239.547 C 245.036 239.166,244.978 239.551,244.980 240.402 M78.783 257.740 C 78.783 267.446,78.822 271.372,78.870 266.464 C 78.918 261.556,78.918 253.615,78.870 248.817 C 78.822 244.019,78.783 248.034,78.783 257.740 M155.490 242.105 C 155.490 242.701,155.553 242.945,155.631 242.647 C 155.709 242.349,155.709 241.861,155.631 241.563 C 155.553 241.265,155.490 241.509,155.490 242.105 M321.747 258.574 L 321.672 275.507 322.360 275.989 C 323.471 276.767,348.349 276.711,348.941 275.929 C 349.290 275.468,349.286 275.445,348.917 275.774 C 348.585 276.070,345.500 276.161,335.756 276.161 C 326.059 276.161,322.904 276.069,322.506 275.774 C 322.027 275.420,321.976 273.937,321.902 258.514 L 321.821 241.641 321.747 258.574 M256.347 256.502 C 257.272 257.438,258.098 258.204,258.183 258.204 C 258.268 258.204,257.581 257.438,256.656 256.502 C 255.731 255.565,254.905 254.799,254.820 254.799 C 254.735 254.799,255.422 255.565,256.347 256.502 M143.796 256.734 L 142.260 258.359 143.885 256.823 C 144.779 255.978,145.511 255.246,145.511 255.197 C 145.511 254.966,145.224 255.223,143.796 256.734 M120.360 266.473 C 120.745 266.547,121.302 266.544,121.598 266.467 C 121.894 266.389,121.579 266.329,120.898 266.332 C 120.217 266.335,119.975 266.399,120.360 266.473 M279.180 266.472 C 279.563 266.546,280.190 266.546,280.573 266.472 C 280.956 266.399,280.642 266.338,279.876 266.338 C 279.110 266.338,278.796 266.399,279.180 266.472 M123.611 270.191 C 124.082 270.262,124.778 270.260,125.159 270.187 C 125.540 270.113,125.155 270.055,124.303 270.058 C 123.452 270.060,123.140 270.120,123.611 270.191 M275.310 270.191 C 275.778 270.262,276.544 270.262,277.012 270.191 C 277.481 270.120,277.098 270.062,276.161 270.062 C 275.224 270.062,274.841 270.120,275.310 270.191 M23.532 275.693 C 23.209 276.083,21.364 276.167,11.498 276.239 L -0.155 276.323 11.485 276.397 C 22.779 276.468,23.140 276.452,23.684 275.851 C 23.992 275.511,24.170 275.232,24.080 275.232 C 23.989 275.232,23.743 275.440,23.532 275.693 M58.591 276.393 C 62.125 276.443,67.906 276.443,71.440 276.393 C 74.973 276.343,72.082 276.303,65.015 276.303 C 57.949 276.303,55.058 276.343,58.591 276.393 M383.204 276.393 C 386.312 276.443,391.397 276.443,394.505 276.393 C 397.612 276.342,395.070 276.301,388.854 276.301 C 382.639 276.301,380.097 276.342,383.204 276.393 M0.000 296.536 C 0.000 296.702,0.221 296.922,0.490 297.026 C 0.792 297.142,0.933 297.072,0.858 296.846 C 0.704 296.383,0.000 296.129,0.000 296.536 M398.765 299.458 C 398.419 300.182,398.311 300.508,398.526 300.182 C 398.741 299.856,399.160 299.334,399.458 299.021 C 400.072 298.376,400.136 298.142,399.697 298.142 C 399.530 298.142,399.110 298.735,398.765 299.458 M396.615 302.869 C 395.733 303.956,395.698 304.048,396.411 303.406 C 397.152 302.738,398.031 301.537,397.766 301.554 C 397.718 301.557,397.200 302.149,396.615 302.869 M5.669 304.859 C 5.929 305.280,8.359 307.240,8.359 307.029 C 8.359 306.950,7.704 306.349,6.903 305.693 C 6.102 305.036,5.547 304.661,5.669 304.859 M12.572 309.107 C 12.675 309.377,12.896 309.598,13.062 309.598 C 13.469 309.598,13.214 308.894,12.751 308.740 C 12.525 308.664,12.456 308.806,12.572 309.107 M387.513 308.875 C 387.217 309.171,387.258 309.598,387.583 309.598 C 387.735 309.598,387.940 309.389,388.038 309.133 C 388.219 308.661,387.889 308.499,387.513 308.875 " stroke="none" fill="#747474" fill-rule="evenodd"></path></g></svg>