<?xml version="1.0" standalone="no"?>
<!DOCTYPE svg PUBLIC "-//W3C//DTD SVG 20010904//EN"
 "http://www.w3.org/TR/2001/REC-SVG-20010904/DTD/svg10.dtd">
<svg version="1.0" xmlns="http://www.w3.org/2000/svg"
 width="315.000000pt" height="248.000000pt" viewBox="0 0 315.000000 248.000000"
 preserveAspectRatio="xMidYMid meet">

<g transform="translate(0.000000,248.000000) scale(0.100000,-0.100000)"
fill="#000000" stroke="none">
<path d="M2105 2436 c-130 -61 -317 -189 -389 -265 -17 -17 -37 -31 -45 -31
-22 0 -133 -110 -127 -125 2 -7 -14 -34 -36 -61 -22 -27 -63 -82 -91 -121 -28
-40 -54 -73 -59 -73 -4 0 -24 32 -43 71 l-36 70 -37 -21 c-20 -12 -114 -67
-208 -122 l-171 -99 -21 -94 c-12 -52 -22 -99 -22 -106 0 -12 -104 -154 -121
-165 -5 -2 -32 11 -61 31 -87 60 -90 58 -250 -145 -75 -96 -137 -181 -138
-188 0 -7 7 -15 15 -18 24 -9 18 -25 -25 -69 l-40 -41 -10 -145 c-5 -79 -12
-169 -16 -199 l-5 -56 184 -87 185 -88 119 36 c65 21 125 39 133 42 12 3 21
-14 37 -69 l22 -73 114 -53 c129 -60 99 -58 337 -22 69 11 176 27 237 36 l113
16 37 69 c33 61 42 70 82 84 24 8 45 14 46 12 1 -1 28 -46 61 -101 l58 -99
126 6 c69 3 226 11 350 18 l225 12 105 44 c191 80 179 73 190 112 50 187 53
211 41 344 -6 71 -13 132 -16 136 -2 5 -26 16 -52 26 -32 12 -63 36 -93 69
-25 28 -59 64 -76 81 -17 16 -59 60 -94 97 l-63 67 13 95 12 95 -46 66 c-53
73 -35 69 -170 34 l-68 -17 -132 136 c-273 283 -378 399 -407 450 l-31 52 23
36 c28 45 138 140 274 235 175 122 184 134 60 75z m-495 -366 c-24 -28 -45
-48 -48 -45 -5 5 76 95 86 95 2 0 -15 -23 -38 -50z m301 -212 c272 -290 390
-409 414 -418 18 -6 212 -215 235 -253 9 -15 56 -68 104 -117 l87 -91 -43 -45
c-24 -24 -54 -46 -67 -49 -13 -2 -21 -2 -17 2 9 9 -25 44 -36 37 -4 -3 -7 0
-6 7 2 7 -4 14 -12 14 -8 0 -14 7 -12 14 3 15 -37 63 -48 56 -3 -2 -33 24 -66
58 l-59 62 65 -60 65 -60 -64 67 c-36 37 -68 65 -72 62 -4 -2 -11 1 -15 7 -4
8 -3 9 4 5 7 -4 12 -3 12 1 0 12 -75 85 -81 78 -3 -2 -23 14 -45 38 l-39 42
45 -40 c34 -30 30 -24 -15 23 -58 61 -86 84 -49 40 l19 -23 -22 19 c-13 10
-20 23 -17 27 3 5 -101 120 -231 256 -131 137 -239 254 -242 261 -5 12 72 102
87 102 4 0 58 -55 121 -122z m-253 20 c11 -1 236 -231 444 -453 l56 -60 -35
-39 c-29 -31 -37 -36 -48 -25 -7 8 -67 75 -135 149 -166 184 -157 176 -234
185 l-67 7 -80 -51 c-44 -28 -83 -51 -87 -51 -4 0 -25 34 -45 76 -44 89 -48
78 65 198 74 77 76 78 114 72 21 -3 45 -7 52 -8z m-171 -673 c11 -24 25 -36
47 -41 30 -7 42 2 71 51 9 14 14 15 38 4 29 -13 32 -24 17 -64 -8 -22 -6 -32
10 -55 19 -26 23 -28 57 -18 31 8 39 7 50 -8 22 -30 15 -49 -22 -63 -32 -11
-35 -16 -35 -51 0 -34 4 -42 30 -55 32 -16 38 -40 18 -68 -11 -14 -18 -15 -50
-6 -32 10 -40 9 -62 -8 -14 -11 -24 -22 -22 -24 2 -2 6 -20 10 -40 6 -34 4
-38 -24 -47 -29 -11 -31 -9 -50 29 -18 34 -25 39 -55 39 -30 0 -38 -5 -52 -35
-19 -39 -21 -40 -58 -23 -29 13 -30 17 -11 62 13 32 13 35 -12 59 -20 18 -32
23 -47 17 -37 -16 -53 -11 -63 19 -12 33 -9 38 34 56 25 10 31 18 31 45 0 24
-8 37 -33 57 -32 24 -33 26 -19 54 15 28 16 28 54 14 37 -13 40 -12 61 10 18
19 21 30 15 63 -5 33 -3 42 12 51 30 17 43 13 60 -24z m-531 -89 c5 -29 11
-35 45 -44 37 -9 39 -9 60 24 24 39 20 38 54 22 27 -12 29 -30 10 -78 -3 -10
5 -24 25 -38 29 -22 31 -22 62 -6 31 16 32 16 50 -6 24 -30 23 -36 -11 -61
-28 -21 -29 -21 -13 -60 14 -36 18 -39 53 -39 34 0 38 -3 44 -31 8 -35 -4 -49
-42 -49 -12 0 -27 -9 -33 -19 -12 -23 -14 -71 -2 -71 4 0 18 -9 31 -19 22 -17
23 -19 7 -49 l-17 -32 -36 15 c-36 15 -37 15 -60 -12 -27 -34 -27 -36 -8 -73
15 -28 14 -30 -10 -46 -25 -16 -27 -16 -55 11 -26 25 -31 26 -64 15 -32 -10
-35 -15 -38 -53 -3 -39 -5 -42 -35 -45 -31 -3 -33 -1 -39 37 -6 37 -10 41 -42
47 -32 6 -39 3 -61 -23 -21 -24 -30 -29 -47 -22 -31 11 -35 22 -23 58 10 28 9
35 -12 57 -26 27 -45 30 -73 9 -27 -20 -33 -19 -52 10 -16 25 -16 27 11 55 25
26 26 31 15 64 -11 33 -15 36 -51 36 -38 0 -39 1 -39 35 0 30 4 35 28 41 15 3
32 7 38 9 7 2 14 20 16 41 4 33 1 39 -29 56 -32 19 -32 20 -17 50 14 27 19 29
52 23 32 -5 41 -2 61 18 21 24 22 26 7 55 -21 40 -20 44 10 66 l26 18 27 -32
c26 -32 28 -32 64 -21 34 12 37 16 37 51 0 35 3 39 28 42 37 5 40 2 48 -36z"/>
<path d="M1469 1031 c-20 -20 -29 -39 -29 -61 0 -37 47 -90 80 -90 67 0 111
65 86 125 -26 62 -89 74 -137 26z"/>
<path d="M863 900 c-18 -10 -41 -37 -53 -59 -57 -113 22 -239 143 -228 86 7
142 68 142 151 0 41 -6 61 -28 93 -15 22 -39 45 -53 52 -39 18 -115 13 -151
-9z"/>
<path d="M16 529 c-11 -35 -15 -85 -7 -97 9 -16 77 -33 97 -25 8 3 14 14 14
24 0 22 -46 99 -59 99 -5 0 -16 3 -25 6 -9 3 -18 0 -20 -7z"/>
<path d="M3053 480 c-29 -12 -29 -25 -1 -44 33 -24 63 -20 78 10 12 22 12 27
0 34 -18 12 -48 12 -77 0z"/>
<path d="M433 194 l-27 -36 23 -19 c32 -26 55 -24 93 10 l33 29 -24 26 c-34
37 -64 33 -98 -10z"/>
<path d="M1775 221 c-32 -14 -77 -67 -73 -88 2 -14 14 -19 55 -21 49 -3 53 -1
59 22 19 78 6 106 -41 87z"/>
<path d="M2892 192 c-37 -32 -41 -39 -30 -54 20 -26 62 -38 132 -38 48 0 67 4
79 18 10 10 17 21 17 25 0 15 -89 75 -120 80 -30 6 -41 1 -78 -31z"/>
<path d="M630 185 c-11 -13 -9 -20 10 -40 29 -31 35 -31 78 2 33 25 34 27 17
40 -25 18 -90 17 -105 -2z"/>
<path d="M2195 55 l-20 -15 20 -15 c34 -27 66 -30 82 -9 7 10 12 25 11 34 -4
21 -68 25 -93 5z"/>
</g>
</svg>
