<?xml version="1.0" encoding="utf-8"?><svg version="1.1" id="Layer_1" xmlns="http://www.w3.org/2000/svg" xmlns:xlink="http://www.w3.org/1999/xlink" x="0px" y="0px" viewBox="0 0 122.88 110.84" style="enable-background:new 0 0 122.88 110.84" xml:space="preserve"><style type="text/css">.st0{fill-rule:evenodd;clip-rule:evenodd;}</style><g><path class="st0" d="M62.89,0l3.26,15.98l1.22-3.44l1.24,7.72l2.33-1.42l-0.69,7.91l3.72-1.21l-2.19,7.56l3.56-1.74l-2.09,7.56 l2.58-1.74l-2.49,8.37l3.68-1.17l-3.67,6.72l3.15-0.25l-3.05,4.59l2.59,0.31l-3.36,6.41l2.52-0.56l-2.77,6.59l0.22,0.31l1.22-0.03 l2.56-4.31l0.86,1.92l2.57-5.33l1.46,1.55l1.53-4.24l1.37,2.19l2.63-5.68l1.02,2.98l4.29-5.71l0.11,2.54l3.94-5.05l0.59,3.18 l3.9-5.12l1.02,3.03l4.86-4.3l0.21,2.22l5.67-2.95l-1.66,2.48l12.08-5.64l-8.91,9.92l2.85-0.87l-4.46,4.57l2.07,0.84l-5.52,3.4 l2.6,1.86l-6.03,2.24l2.87,1.49l-5.98,2.3l2.4,0.85l-6.71,2.45l2.56,1.84l-6.2,0.86l1.7,1.95l-4.5,0.23l1.06,1.85l-5.85,0.92 l1.59,1.38l-5.56,1.37l0.08,0.69l0.27,0.34l2.39-1.4l-0.17,1.61l3.81-1.83L88.54,83l4.73-1.21l-1,1.31l4.26-1.01l-1.01,1.81 l4.27-1.06l-0.71,1.9l4.45-0.29l-0.82,1.19l4.32,0.7l-1.94,0.6l8.95,1.8l-9.01,1.54l1.92,0.65l-4.35,0.57l0.78,1.21l-4.44-0.42 l0.64,1.92l-4.23-1.19l0.94,1.84l-4.23-1.14l0.95,1.34l-4.68-1.34l0.63,1.89l-3.74-1.94l0.11,1.62l-2.55-1.6l-0.2,1.33l-3.57-1.78 l0.29,1.3L75.46,93l0.01,1.16L70.8,92.1l-0.21,0.98l-3.48-2.6l-0.12,0.97l-2.44-1.96l-0.83,0.98c-0.25,6.85,0.72,13.62,1.9,20.37 h-5.57c1.25-6.91,2.15-13.75,2.03-20.38l-1-1.17l-2.44,1.96l-0.12-0.97l-3.48,2.6l-0.21-0.98l-4.68,2.07l0.01-1.16l-3.86,1.55 l0.29-1.3l-3.57,1.78l-0.2-1.33l-2.55,1.6l0.11-1.62l-3.74,1.94l0.63-1.9l-4.68,1.34l0.95-1.34l-4.23,1.14l0.94-1.84l-4.23,1.19 l0.64-1.92l-4.44,0.42L23,91.31l-4.35-0.57l1.92-0.66l-9.01-1.54l8.95-1.8l-1.94-0.6l4.32-0.7l-0.82-1.19l4.45,0.29l-0.71-1.9 l4.27,1.06l-1.01-1.81l4.26,1.01l-1-1.31l4.73,1.21l-0.67-1.82l-1.52-0.36l1.57-1.4l-5.86-0.85l1.04-1.86l-4.5-0.18l1.68-1.96 l-6.21-0.8l2.54-1.87l-6.73-2.37l2.39-0.87l-6.01-2.24l2.86-1.52l-6.06-2.18l2.58-1.89L8.61,57.3l2.06-0.87l-4.51-4.52l2.86,0.84 L0,42.93l12.14,5.51l-1.69-2.46l5.7,2.88l0.18-2.23l4.9,4.25l0.99-3.04l3.95,5.08l0.56-3.19l4,5.01l0.09-2.54l4.35,5.66l0.99-2.99 l2.69,5.65l1.35-2.2l1.57,4.22l1.45-1.57l2.63,5.3l0.84-1.93l3.19,5.24l1.05-1.53l0.55,0.99l-0.26-0.55l2.27,0.06l-2.9-6.92 l2.52,0.56l-3.36-6.41l2.59-0.31l-3.05-4.59l3.15,0.25l-3.67-6.72l3.68,1.17l-2.48-8.37l2.58,1.74l-2.09-7.56l3.56,1.74l-2.19-7.56 l3.72,1.21l-0.69-7.91l2.33,1.42l1.24-7.72l1.22,3.44L62.89,0L62.89,0z M40.09,81.84l-3.51-0.82l3.6,1.73L40.09,81.84L40.09,81.84z"/></g></svg>