<?xml version="1.0" encoding="utf-8"?><svg version="1.1" id="Layer_1" xmlns="http://www.w3.org/2000/svg" xmlns:xlink="http://www.w3.org/1999/xlink" x="0px" y="0px" viewBox="0 0 122.88 42.59" style="enable-background:new 0 0 122.88 42.59" xml:space="preserve"><style type="text/css">.st0{fill-rule:evenodd;clip-rule:evenodd;}</style><g><path class="st0" d="M0,27.89c0.34-1.89,1.29-3.06,3.17-3.13c-0.16-1.98,0.2-3.65,1.07-5.02c0.41-0.64,0.92-1.21,1.54-1.71 c2.18-1.77,4.64-1.96,7.33-2.45c2.6-0.47,5.21-0.87,7.81-1.18c3.15-0.37,6.3-0.62,9.44-0.71c1.46-0.04,1.11,0.04,2.26-0.85 c5.66-4.38,11.83-7.97,18.3-11.08C53.18,0.65,56.06,0.1,59.45,0c6.77,0,13.53,0,20.3,0c4.48,0.02,8.29,1.05,11.5,2.98l12.31,9.47 c4.1,0.27,8.21,0.54,12.31,0.81c2.51-0.07,4.44,0.79,5.17,3.52v8.31c3.48,0.89,1.21,8.91-0.35,10.67 c-1.38,1.55-2.62,1.37-4.47,1.37h-10.97c2.11-15.86-14.06-19.25-20.72-10.61c-2.2,2.85-2.53,6.74-1.62,11.31H33.1 c2.55-11.75-5.04-16.54-12.02-15.85c-8.98,0.88-11.34,8.08-9.8,15.99H3.51C1.29,38.07,0.26,36.3,0,33.31V27.89L0,27.89z M93.9,24.75c4.93,0,8.92,3.99,8.92,8.92c0,4.93-3.99,8.92-8.92,8.92c-4.93,0-8.92-3.99-8.92-8.92 C84.98,28.74,88.97,24.75,93.9,24.75L93.9,24.75z M23.32,29.41v3.21h3.21C26.14,31.04,24.9,29.8,23.32,29.41L23.32,29.41z M26.53,34.72h-3.21v3.21C24.9,37.54,26.14,36.3,26.53,34.72L26.53,34.72z M21.22,37.93v-3.21h-3.21 C18.4,36.3,19.64,37.54,21.22,37.93L21.22,37.93z M18.01,32.62h3.21v-3.21C19.64,29.8,18.4,31.04,18.01,32.62L18.01,32.62z M94.95,29.41v3.21h3.21C97.77,31.04,96.53,29.8,94.95,29.41L94.95,29.41z M98.16,34.72h-3.21v3.21 C96.53,37.54,97.77,36.3,98.16,34.72L98.16,34.72z M92.85,37.93v-3.21h-3.21C90.03,36.3,91.27,37.54,92.85,37.93L92.85,37.93z M89.64,32.62h3.21v-3.21C91.27,29.8,90.03,31.04,89.64,32.62L89.64,32.62z M22.27,24.75c4.93,0,8.92,3.99,8.92,8.92 c0,4.93-3.99,8.92-8.92,8.92c-4.93,0-8.92-3.99-8.92-8.92C13.35,28.74,17.34,24.75,22.27,24.75L22.27,24.75z M86.83,15.83 l1.68-9.88l5.9,7.43l-1.11,1.26l-1.05,1.19H86.83L86.83,15.83z M38.48,11.88v3.84h24.87l1.81-13.37h-6.82 c-4.24,0.5-4.93,0.64-8.79,2.68c-3.17,1.68-6.07,3.54-9.16,5.55C39.76,11.01,39.11,11.44,38.48,11.88L38.48,11.88z M69.08,2.2 l-2.01,13.52h17.89l1.77-12.09C79.36,1.84,76.27,2.2,69.08,2.2L69.08,2.2z"/></g></svg>