<?xml version="1.0" standalone="no"?>
<!DOCTYPE svg PUBLIC "-//W3C//DTD SVG 20010904//EN"
 "http://www.w3.org/TR/2001/REC-SVG-20010904/DTD/svg10.dtd">
<svg version="1.0" xmlns="http://www.w3.org/2000/svg"
 width="452.000000pt" height="452.000000pt" viewBox="0 0 452.000000 452.000000"
 preserveAspectRatio="xMidYMid meet">

<g transform="translate(0.000000,452.000000) scale(0.100000,-0.100000)"
fill="#000000" stroke="none">
<path d="M2105 4325 c-345 -63 -619 -312 -717 -650 -20 -69 -23 -102 -23 -240
0 -122 5 -175 18 -225 27 -98 109 -258 174 -340 114 -143 301 -264 483 -311
122 -32 320 -32 440 -1 337 90 597 364 665 701 21 102 16 312 -10 406 -26 96
-109 257 -175 338 -203 253 -541 380 -855 322z m336 -190 c489 -131 698 -709
405 -1119 -91 -128 -210 -214 -371 -269 -81 -27 -103 -30 -210 -30 -122 -1
-167 7 -265 45 -226 89 -392 283 -445 522 -33 149 -10 338 57 471 99 194 290
344 488 384 30 6 64 13 75 15 37 9 209 -4 266 -19z"/>
<path d="M2228 3963 l-3 -68 -35 -6 c-56 -9 -108 -38 -149 -85 -81 -92 -83
-232 -3 -324 36 -43 69 -63 191 -117 133 -59 176 -112 151 -187 -15 -47 -42
-68 -93 -73 -82 -10 -133 31 -152 120 l-5 27 -91 0 -91 0 7 -37 c14 -78 30
-116 69 -160 43 -49 123 -93 169 -93 27 0 27 -1 27 -65 l0 -65 50 0 50 0 0 60
c0 40 4 62 13 64 94 26 129 41 164 71 103 88 104 278 2 370 -22 20 -96 63
-165 96 -97 46 -129 67 -144 92 -49 79 -2 177 84 177 59 0 97 -39 110 -112 l7
-38 91 0 90 0 -6 38 c-25 135 -72 197 -180 233 l-51 18 -3 65 -3 66 -49 0 -49
0 -3 -67z"/>
<path d="M1172 3060 c-163 -89 -188 -129 -362 -582 l-84 -218 -157 0 c-173 0
-234 -8 -305 -42 -100 -47 -160 -135 -171 -251 -5 -55 -2 -72 19 -119 45 -98
113 -128 289 -128 66 0 119 -1 119 -3 0 -1 -16 -42 -35 -91 l-35 -89 0 -557
c0 -646 -2 -629 84 -716 77 -77 110 -84 371 -84 241 0 286 8 352 65 59 50 93
125 100 219 l6 76 897 0 897 0 6 -74 c7 -96 38 -166 95 -216 70 -62 112 -70
357 -70 261 0 294 7 371 84 86 87 84 70 84 715 l0 556 -35 89 c-19 49 -35 91
-35 93 0 2 54 3 120 3 182 0 244 29 291 134 42 95 10 227 -74 309 -78 75 -130
89 -356 96 l-193 6 -112 285 c-137 350 -147 370 -216 434 -56 51 -156 113
-167 103 -3 -3 -20 -40 -38 -81 l-32 -75 59 -36 c32 -20 70 -53 83 -73 31 -48
260 -630 282 -716 14 -58 14 -70 2 -103 -17 -44 -74 -77 -158 -93 -74 -14
-2389 -14 -2462 0 -125 24 -178 76 -163 163 10 64 73 242 170 485 98 247 121
283 210 334 30 16 54 31 54 32 0 4 -68 158 -72 161 -2 2 -27 -9 -56 -25z
m-522 -989 c0 -5 -14 -46 -31 -90 l-31 -81 -142 0 c-167 0 -183 6 -172 63 9
49 48 93 94 105 47 13 282 15 282 3z m3496 -2 c52 -13 90 -53 100 -106 11 -57
-5 -63 -173 -63 l-143 0 -11 28 c-6 15 -22 55 -35 90 l-24 62 121 0 c66 0 140
-5 165 -11z m-3212 -322 l71 -22 1255 0 1255 0 71 22 c40 13 95 38 123 57 l50
34 20 -51 c10 -29 40 -105 65 -170 l46 -119 0 -358 0 -359 -24 -28 -24 -28
-1582 0 -1582 0 -24 28 -24 28 0 359 0 359 60 158 c33 87 62 163 65 170 3 8
22 0 56 -22 28 -19 83 -45 123 -58z m10 -1207 l239 0 -6 -58 c-5 -66 -20 -96
-54 -111 -34 -16 -404 -15 -438 1 -37 17 -55 57 -55 124 l0 57 38 -7 c20 -3
144 -6 276 -6z m2946 -45 c0 -66 -18 -106 -55 -123 -34 -16 -404 -17 -438 -1
-34 15 -49 45 -54 110 l-6 59 254 3 c140 1 264 3 277 5 20 2 22 -2 22 -53z"/>
<path d="M933 1621 c-53 -14 -122 -60 -154 -104 -84 -117 -70 -267 37 -373 44
-45 188 -133 306 -189 90 -42 208 -60 295 -44 119 22 213 96 267 209 26 56 31
76 31 145 0 69 -5 89 -32 147 -39 84 -97 141 -181 181 l-67 32 -235 2 c-129 1
-249 -2 -267 -6z m469 -181 c127 -36 176 -190 92 -290 -40 -47 -77 -62 -154
-61 -84 1 -134 19 -265 96 -137 81 -167 110 -169 162 -1 44 21 78 59 94 29 12
394 11 437 -1z"/>
<path d="M3094 1620 c-179 -37 -312 -218 -289 -395 14 -112 96 -230 195 -280
110 -56 267 -52 398 10 118 56 262 144 306 189 141 140 114 358 -54 451 l-55
30 -230 2 c-126 1 -249 -2 -271 -7z m493 -203 c38 -37 37 -96 -1 -136 -34 -35
-220 -147 -288 -172 -63 -25 -174 -27 -216 -5 -111 57 -131 208 -39 294 49 46
86 52 309 49 l208 -2 27 -28z"/>
</g>
</svg>
