<?xml version="1.0" encoding="utf-8"?><svg version="1.1" id="Layer_1" xmlns="http://www.w3.org/2000/svg" xmlns:xlink="http://www.w3.org/1999/xlink" x="0px" y="0px" viewBox="0 0 122.879 110.328" enable-background="new 0 0 122.879 110.328" xml:space="preserve"><g><path d="M11.098,5.322l5.111-4.927c0.551-0.529,1.419-0.524,1.964,0l5.178,4.994c0.289,0.277,0.434,0.649,0.434,1.021v4.77 l92.82,0.006l4.863,0.028c0.781,0.002,1.412,0.64,1.41,1.42c-0.002,0.218-0.051,0.425-0.141,0.609l-4.992,10.331 c-0.244,0.506-0.748,0.801-1.275,0.801l-22.512,0.001v3.383h-6.883v-3.383l-40.77,0.001v3.381h-6.882v-3.381H23.787l0.003,81.802 c0,1.136-0.47,2.173-1.219,2.924c-0.757,0.755-1.796,1.225-2.928,1.225h-4.904c-1.139,0-2.178-0.468-2.93-1.219l-0.088-0.097 c-0.698-0.743-1.13-1.742-1.13-2.833V24.379H4.148c-1.138,0-2.177-0.47-2.927-1.221S0,21.369,0,20.231v-4.904 c0-1.139,0.468-2.178,1.219-2.93c0.751-0.75,1.787-1.218,2.929-1.218h6.442V6.41C10.59,5.973,10.789,5.583,11.098,5.322 L11.098,5.322z M49.212,48.848c1.646,0,3.275,0.303,4.885,0.91l-0.831,4.236l-0.727,0.311c-0.727-0.45-1.446-0.806-2.157-1.065 c-0.71-0.26-1.282-0.389-1.715-0.389c-0.399,0-0.715,0.077-0.949,0.234c-0.233,0.155-0.351,0.364-0.351,0.623 c0,0.329,0.178,0.611,0.532,0.845c0.356,0.232,0.949,0.542,1.78,0.923c0.971,0.432,1.769,0.835,2.39,1.207 c0.625,0.374,1.17,0.884,1.639,1.534c0.467,0.649,0.701,1.451,0.701,2.403c0,1.057-0.29,2.014-0.871,2.871s-1.407,1.538-2.481,2.04 s-2.321,0.754-3.742,0.754c-1.767,0-3.621-0.329-5.561-0.988l0.754-4.521l0.519-0.312c0.798,0.607,1.65,1.087,2.56,1.442 c0.909,0.354,1.668,0.533,2.273,0.533c0.486,0,0.837-0.083,1.053-0.247c0.217-0.165,0.326-0.368,0.326-0.611 c0-0.363-0.186-0.671-0.56-0.923c-0.373-0.251-0.973-0.559-1.805-0.922c-0.953-0.415-1.736-0.81-2.353-1.183 c-0.614-0.371-1.147-0.883-1.598-1.532c-0.45-0.649-0.676-1.451-0.676-2.404c0-1.091,0.294-2.074,0.883-2.95 c0.591-0.875,1.413-1.563,2.47-2.065C46.659,49.1,47.861,48.848,49.212,48.848L49.212,48.848z M63.994,48.848 c2.443,0,4.332,0.724,5.666,2.17c1.332,1.446,2,3.486,2,6.12c0,2.91-0.73,5.161-2.195,6.756c-1.463,1.593-3.537,2.391-6.223,2.391 c-2.442,0-4.332-0.731-5.666-2.196c-1.333-1.464-2-3.538-2-6.223c0-2.876,0.731-5.098,2.196-6.666S61.31,48.848,63.994,48.848 L63.994,48.848z M63.527,53.006c-0.676,0-1.186,0.117-1.533,0.35c-0.347,0.234-0.594,0.646-0.74,1.235 c-0.147,0.588-0.221,1.446-0.221,2.572c0,1.438,0.078,2.529,0.233,3.275c0.156,0.743,0.42,1.264,0.794,1.558 c0.371,0.296,0.922,0.442,1.648,0.442c0.676,0,1.186-0.118,1.533-0.352s0.594-0.648,0.74-1.247c0.148-0.598,0.223-1.46,0.223-2.585 c0-1.421-0.078-2.504-0.234-3.249c-0.156-0.744-0.42-1.264-0.793-1.558C64.805,53.152,64.256,53.006,63.527,53.006L63.527,53.006z M83.689,62.074l-0.313,3.897H73.373l0.262-4.937L73.373,49.16h5.301l-0.285,11.356l0.051,1.195h4.965L83.689,62.074L83.689,62.074 z M92.965,49.056c2.477,0,4.377,0.67,5.703,2.014c1.324,1.342,1.988,3.279,1.988,5.809c0,2.996-0.771,5.301-2.313,6.911 c-1.543,1.611-3.75,2.417-6.627,2.417c-1.803,0-3.916-0.077-6.34-0.234l0.26-4.937l-0.26-11.875L92.965,49.056L92.965,49.056z M92.705,62.334c0.813,0,1.434-0.325,1.857-0.974c0.424-0.649,0.635-1.72,0.635-3.21c0-1.264-0.086-2.261-0.258-2.988 c-0.174-0.727-0.451-1.252-0.832-1.573c-0.381-0.32-0.91-0.481-1.584-0.481c-0.66,0-1.309,0.035-1.949,0.105l-0.184,7.302 l0.053,1.61C91.482,62.265,92.238,62.334,92.705,62.334L92.705,62.334z M37.906,31.007h66.6c2.107,0,4.023,0.866,5.412,2.252 l0.105,0.116c1.328,1.383,2.148,3.255,2.148,5.298v37.354c0,2.103-0.867,4.022-2.256,5.411c-1.389,1.388-3.307,2.255-5.41,2.255 h-66.6c-2.098,0-4.017-0.866-5.41-2.258c-1.391-1.384-2.256-3.3-2.256-5.408V38.673c0-2.109,0.862-4.027,2.251-5.416 C33.879,31.869,35.797,31.007,37.906,31.007L37.906,31.007z M104.506,34.797h-66.6c-1.065,0-2.036,0.437-2.737,1.139 c-0.701,0.701-1.139,1.672-1.139,2.737v37.354c0,1.062,0.438,2.031,1.141,2.733c0.7,0.707,1.67,1.143,2.735,1.143h66.6 c1.059,0,2.029-0.439,2.732-1.144c0.703-0.703,1.143-1.673,1.143-2.732V38.673c0-1.027-0.404-1.967-1.061-2.659l-0.082-0.076 C106.537,35.235,105.566,34.797,104.506,34.797L104.506,34.797z"/></g></svg>